/* XPM */
static char *collectible_bomb1735358325[] = {
/* columns rows colors chars-per-pixel */
"64 64 164 2 ",
"   c #000100",
".  c #060E01",
"X  c #05080D",
"o  c #0B0C0C",
"O  c #061101",
"+  c #081302",
"@  c #0C1F01",
"#  c #070E16",
"$  c #0B141E",
"%  c #181818",
"&  c #0D2002",
"*  c #112C01",
"=  c #153301",
"-  c #193D00",
";  c #13241E",
":  c #222D1D",
">  c #0D1621",
",  c #0F1824",
"<  c #121A24",
"1  c #1C1E21",
"2  c #162639",
"3  c #17293D",
"4  c #18293D",
"5  c #242425",
"6  c #273039",
"7  c #2A333D",
"8  c #3B3B3B",
"9  c #1F4A00",
"0  c #1D4115",
"q  c #204A00",
"w  c #235500",
"e  c #265B00",
"r  c #285D0B",
"t  c #2A4613",
"y  c #2A6700",
"u  c #2A6800",
"i  c #2E600B",
"p  c #2F7400",
"a  c #317601",
"s  c #347C01",
"d  c #357E0B",
"f  c #2D5C3C",
"g  c #306C24",
"h  c #397E3B",
"j  c #526E3D",
"k  c #477924",
"l  c #203A53",
"z  c #28465C",
"x  c #264260",
"c  c #284564",
"v  c #294867",
"b  c #294769",
"n  c #294969",
"m  c #364E65",
"M  c #2E4F75",
"N  c #2E5075",
"B  c #2F5278",
"V  c #395675",
"C  c #3C7763",
"Z  c #545454",
"A  c #5A6554",
"S  c #4A5362",
"D  c #595C61",
"F  c #415A73",
"G  c #5A6169",
"H  c #536579",
"J  c #646464",
"K  c #686867",
"L  c #646C75",
"P  c #686D73",
"I  c #787778",
"U  c #378700",
"Y  c #388501",
"T  c #378800",
"R  c #388801",
"E  c #3E830C",
"W  c #3D8C1F",
"Q  c #3A8415",
"!  c #4D921D",
"~  c #458A15",
"^  c #519621",
"/  c #5F913C",
"(  c #448E53",
")  c #47965F",
"_  c #77A954",
"`  c #479561",
"'  c #7A9665",
"]  c #83B560",
"[  c #365E89",
"{  c #37608C",
"}  c #3E718C",
"|  c #3C6799",
" . c #3E6D9E",
".. c #3F6FA0",
"X. c #436C98",
"o. c #4B6A89",
"O. c #617E9C",
"+. c #727C88",
"@. c #4376AD",
"#. c #4B78A6",
"$. c #567FAB",
"%. c #77899E",
"&. c #78899D",
"*. c #52A19E",
"=. c #5881AD",
"-. c #6380A0",
";. c #7B8DA1",
":. c #4C938B",
">. c #4C87C3",
",. c #4D88C5",
"<. c #4E8AC8",
"1. c #5697DB",
"2. c #569ADE",
"3. c #5492C5",
"4. c #6292C3",
"5. c #5EABDF",
"6. c #68A3DF",
"7. c #7AAADB",
"8. c #579AE0",
"9. c #599DE2",
"0. c #5CA2EA",
"q. c #5FA9F4",
"w. c #6CA7E3",
"e. c #68A8E8",
"r. c #60A9F4",
"t. c #63AEFD",
"y. c #6BAEF4",
"u. c #64B0FE",
"i. c #77BAFF",
"p. c #73B6FC",
"a. c gray53",
"s. c #8C8C8C",
"d. c #919C8C",
"f. c #979797",
"g. c #909398",
"h. c #A2BE8B",
"j. c #9299A1",
"k. c #99A1AC",
"l. c #A5A7AC",
"z. c #B4D2A0",
"x. c #87A4C3",
"c. c #89A7C3",
"v. c #89B4DF",
"b. c #ADB8C2",
"n. c #96BFEB",
"m. c #ACC6DF",
"M. c #B7C9DB",
"N. c #B8C9DB",
"B. c #9ECEFF",
"V. c #92C2F3",
"C. c #B2CDEB",
"Z. c #BFD9F2",
"A. c #C4C4C4",
"S. c #C5C6C8",
"D. c #C9D4C3",
"F. c #E5F0DF",
"G. c #CED7E0",
"H. c #D0D8E3",
"J. c #DFE3E4",
"K. c #C6E1FF",
"L. c #E4E7EC",
"P. c #E2E4E7",
"I. c #E8EDF3",
"U. c #ECF4FE",
/* pixels */
"U U U U U U U U U U U U U U U U U U U U U U ^ ] z.F.U.K.B.i.u.u.u.u.5.*.) W U U U U U U U U U U U U U U U U U U U U U U U U U U ",
"U U U U U U T U U U U U U T U U U U U U U U ^ ] z.F.U.K.B.i.u.u.u.u.5.*.) W U U U U U U U U U U U U U U U U U U U U U U U U U U ",
"U U U U U U U U U U U U U U U U U U U U U U ^ ] z.F.U.K.B.i.u.u.u.u.6.*.) W U U U U U U U U U U U U U U U U U U U U U U U U U U ",
"U U U U U U U U U U U U U U U U U U U U U U ^ ] z.F.U.K.B.i.u.u.u.u.5.*.) W U U U U U U U U U U U U U U U U U U U U U U U U U U ",
"U U U U U U U U U U U U U U U U U U U U U U ^ ] z.F.U.K.B.i.u.u.u.u.5.*.) W T T U U U U U U U U U U U U U U U U U U U U U U U U ",
"U U U U U U U U U U U U U U U U U U U U U U ^ ] z.F.U.K.B.i.u.u.u.u.5.*.) W T U U U U U U U U U U U U U U U U U U U U U U U U U ",
"U U U U T U T U U T U U U U T U U U U U U U ! _ h.D.G.m.v.6.1.8.2.2.=.:.( W U U U U U U U U U U U U U U U U U U U U U U U U U U ",
"U U U U U U U U U U U U U U U U U U U U U U ~ / ' d.j.;.-.#.X.......} C ( Q U U U U U U U U U U U U U U U U U U U U U U U U U U ",
"T U U T U U U T U U T U U R U U U U U U U U E k j A D S m z x x x x z f g d T R U T U U U U U U U U U U U U U U U U U U U U U U ",
"Y U U Y Y U U U U U U U U R U U U U U U U U d i t : 1 1 < , > > > > ; 0 r a T U U U U U U U U U U U U U U U U U U U U U U U U U ",
"T U U T T T U U U U U U U U U U U U Y Y s a u q * .                 O * q y a s Y Y U U U U U U U U U U U U U U U U U U T T U T ",
"U U U U T Y U U U U U U U U U U U U s a u e q = & .                 O & = q e y p Y U U U U U U U U T U U U U U U U U U T T T T ",
"T U U U U U U U U U U U U U U U Y U s y w - * & +                   . . @ * - w y a T U U U U U U U U U U U T U U U T U U U U U ",
"Y T T U U U U U U T U U U U U U U U s e - & . . .                     . . . & - e a T T U T U U U U T U U U U U U U U U T U U U ",
"R U Y T U U U U U U U U U U Y Y s s u q * .   o % % 1 % o                   . * q u a s Y Y U Y Y T Y T U U U U U U U U U U U U ",
"U U U U U U U T U U U U U T s a y e q = & . o 5 8 Z Z 8 5 o                 . & = q e u p Y U U T U U U U U U U U U U U U U U U ",
"U U U U U T U U U U U U U U s y q - * & +   % 8 J s.s.J 8 %                   + @ * - w y s U U U T Y T U U U U U U U U U U U U ",
"U U U U T Y U U U U U U U U s e - & + . .   % Z s.A.A.s.Z %                   . . . @ - e s Y U Y T Y T U U U U U U U U U U U U ",
"U U U U U U T Y T U Y Y s a u q * +   o % 1 8 K f.A.A.s.Z %                         . * 9 y a s s U T T U U U U T U U U U U U T ",
"U U U U T U U T T T s a u e q = & . o 5 8 Z K I a.f.a.J 8 %                         . @ = 9 e y a Y T Y U U U U U U U U U U U U ",
"T T T Y Y U U T U U s y w - * & +   % 8 J s.f.a.I K Z 8 5 o                           + @ * - w y s U U U U U T U U U U U U U U ",
"Y Y T T T U T Y U U a e - & . . . . % Z s.A.A.f.K 8 % % o                             . . O @ - e a U U U U U U U U U U U U U U ",
"T T Y T T Y U U U U a w = .   X # $ 7 P l.P.P.l.P 7 > > < > > > > > > > > > > > > > > # X   O = w a U U U U U U U U U U U U U U ",
"T Y U U U T U U U U a w = + X < 2 l V ;.b.I.I.l.&.F x x x x x x x x x x x x x x c x l 4 , X O = w a U U U U U U U U U U T U U U ",
"T U U U U T Y U U Y a w = . # 4 c [ $.x.M.I.I.M.x.$.X...........X.@.................{ n 3 # O = w a T Y U U T U U U U U U U U U ",
"Y T Y T U U T U U T a w = + $ l [ ,.w.n.Z.U.U.Z.n.w.9.8.8.8.8.8.2.8.8.9.8.8.8.8.2.8.>.{ l $ O = w a U T U T Y U U U U U U U U U ",
"Y T T U Y T U U U U a w = . < x X.8.i.B.K.U.I.K.n.w.8.8.8.8.8.8.8.8.8.9.q.t.t.t.u.t.8...x > O = w a U U U T T U T U U U U U U U ",
"T U U U U T U U U U s w = . > x @.8.i.B.K.U.I.N.x.$....... ... .....@.,.1.r.u.t.u.t.8...x > O = w a U U T Y Y T U U U U U U U T ",
"U U U U U R U U U U a w = + > x  .2.i.B.K.U.L.b.%.V z x x x x x x x N | ,.0.u.u.u.u.8. .z > . = w a U U T Y T U U U T U U U U U ",
"T U U T U U U U U U a w = + > x ..2.i.B.K.U.L.l.P 7 > > > > > > > $ 3 N @.9.u.t.u.t.8...x > O = w s U U T Y U U U T Y U U U U U ",
"Y U U Y U U U U U U a w = + > x ..8.p.V.C.H.S.g.G 6 > > > > > > > > 2 v | <.9.0.q.q.8. .x > + = w a U U T T Y T Y T U U U U U U ",
"T U U T U U U U U U a w = . > x ..8.y.7.c.j.g.+.H m c x x x x x z v v B { | @.>.1.q.8...x > + = w a U U Y T T T Y T T Y T U U U ",
"U T U T U U U U U U a w = + < x X.2.r.4.O.H G H o.X.......X. .@. ...| [ N n N  .<.0.9...x > O = w a T T U U U U U U U U U U U U ",
"U Y T Y U U U U U U a w = . > x ..8.9.#.F 7 6 m X.<.8.8.8.2.1.8.8.8.<. .n 2 3 M ..0.8...x > O = w p U T U U U U U U U U U U U U ",
"U U U U U U U U U U a w = . > x ..9.8...x > > x @.1.u.u.u.u.u.u.u.u.0...N 3 3 M ..0.2. .x > O = w p U U U U U U U U U U U U U U ",
"Y T U T U U U U U U a w = + > x ..8.8. .x > > x X.2.u.u.u.u.u.u.u.u.0.>. .N N | ,.0.8. .x > O = w p U T U U U U U U U U U U U U ",
"T U T Y U T U U U U a w = O > x ..8.8...z > > x ..8.u.u.u.u.u.u.u.u.q.1.,.@.@.,.1.q.2. .x > O = e p Y T U U U U U U U U U U U U ",
"U U U T U U U U U U a w = . > x ..8.8...x > > x ..8.u.u.u.t.u.u.u.t.t.q.0.9.0.0.q.t.2. .x > O = w p T T U U U U U U U U U U U U ",
"U T U U U U U U U U a w = + , x ..8.8...x > , x ..8.u.u.u.u.u.u.u.u.u.u.u.t.u.u.t.t.2. .x > O = w p Y Y U U U U U U U U U U U U ",
"U Y T U U U U U U T a w = . > x ..2.2...x $ > x ..2.u.u.u.u.u.u.u.u.u.u.u.u.u.t.t.t.2...x > O = w s T T U U U U U U U U U U U U ",
"U U T T Y Y T T Y T a w = O > x ..8.8...x > > x ..8.u.u.u.u.u.u.u.u.u.t.u.u.u.u.u.u.2. .x > O = w a U U U T U U U U U U U U U U ",
"Y T Y T T T T Y T T a w = O > x ..2.8. .x > > x ..8.u.u.u.u.u.u.u.u.u.u.u.u.u.u.u.u.8. .x $ O = w a U U U U U U U U U U U U U U ",
"T Y T T U T U U T Y s w = O > x ..8.2...x > > x ..8.u.u.u.u.u.u.u.u.q.q.0.9.9.0.q.t.2. .x > O = w a U U U U U U U U U U U U U U ",
"U U T Y U Y T U T Y p w = O > c ..2.8. .z $ , x ..8.u.u.u.u.u.u.u.u.q.2.>.@.@.>.1.r.8. .x > O = w a U U U U U U U U U U U U U U ",
"U U R U U Y T U T T p w = O > x ..8.9...x > > x ..8.u.u.u.t.u.u.u.u.0.>. .M M  .,.0.8...x > O = w a T T T T U U U U U U U U U U ",
"U U U U U T U U Y T a w = O > x ..9.9...x > > x ..8.u.u.u.u.u.u.u.u.9.@.M 2 4 M @.9.8. .z > O = w a U U T T U U T U U U U U U T ",
"U U T U U U U T T Y p w = O > x ..8.9...N 3 2 n | >.8.8.8.8.8.8.2.9.,.| b 2 4 M @.9.2. .x > O = w a U U T T U U U U U U U U U U ",
"U U Y T U U T Y T T p w = O > x ..8.0.,.| N v B [ | .... ..... . . . .[ B v N  .,.0.8. .x > . = w a U U T U U U U U U U U U U U ",
"U U U U U U U T Y T a w = + > x ..8.q.2.,.@.| { B n x x x x x x x x n B {  ...>.2.q.8. .x > O = w a T U T Y T U U T T Y T U U R ",
"U U U U U U U U U R a w = + > x ..8.q.q.0.9.<.| n 2 > > > > > > > $ 2 n | <.0.0.q.q.8...x > O = w a U U U U U U T Y U U U U U U ",
"U U U U U U U U U T a w = . > x ..8.u.u.u.u.9.@.N 3 > > > > > > > , 3 N ..0.u.u.t.t.8...x $ O = w a U U T U Y T U T Y U U U U U ",
"U T Y T U U U U U U a w = . < x ..8.u.u.u.u.0.>. .N x x x x x x x x N  .<.0.u.u.u.t.8. .x > . = w a U T Y T T T U U T U U U U U ",
"U T T Y T U U U U U a w = + $ x ..8.u.u.u.u.q.1.>.@..... ...........@.>.2.q.t.t.u.t.8...x > O = w a U T U U T Y U U T U U U U U ",
"T Y U U U U U U U U a w = + < x  .8.u.u.u.u.q.q.0.8.8.8.8.8.8.8.8.8.0.0.q.q.u.t.u.u.8...x > O = w a U U U U T Y U T Y U U U U U ",
"U T Y U U T U R U U a w = + $ l [ >.8.8.8.8.8.8.8.8.2.8.8.8.8.8.8.8.2.2.8.2.8.8.2.8.,.{ l $ O = w a T U U U U U T Y U U U U T Y ",
"U U T U T Y U U U U a w = . # 2 v {  . ..... ....... ..... ... ... . . ... ..... . .{ n 3 # O = w a U U U U U U U T T Y T U U T ",
"U U U U U U U U U U a w = . X < 4 l x x z x x x x x x z x x x z x x x x x x x x x x l 3 > # O = w a T U Y T U U U U T Y T T T Y ",
"U U U U U U U U U U a w = +   X # $ > $ > > > > > > > > > > > > > > $ > > > > $ $ > $ # X   . = w a Y U T U U T T U T Y T Y T T ",
"U U U U U U U U U U a e - & + . .                                                     . . . @ - e a U U U U T Y Y U U T Y T Y T ",
"U U U U U U U U U U s y q - * & . .                                                 . + @ * - w u s T Y T U U U T U Y T T U U U ",
"U U U U U U U U U U s a u e q = & .                                                 . & = q e u a s U U U T Y U U U U U U U T Y ",
"U U U U U U U U U U U Y s s u q * .                                                 . * q u a s Y U U U U U T U U R U U U U U T ",
"U T U U U U U U U U U U U T a w = O                                                 . = w s U U U U U U U U U U U U Y T U U U U ",
"U U U U U U U U U U U U U T a w = O                                                 + = w a U U U U U U U U U U U U T U U T Y T "
};
