/* XPM */
static char *collectible1735351364[] = {
/* columns rows colors chars-per-pixel */
"64 64 241 2 ",
"   c #030203",
".  c #0B0402",
"X  c #050A01",
"o  c #0C0904",
"O  c #04030B",
"+  c #0B030B",
"@  c #030B0D",
"#  c #0B0A0B",
"$  c #120403",
"%  c #1A0402",
"&  c #140B03",
"*  c #1B0C03",
"=  c #130609",
"-  c #150C0B",
";  c #1B0C0B",
":  c #0C110C",
">  c #04110C",
",  c #161104",
"<  c #1C1204",
"1  c #1C130B",
"2  c #18150A",
"3  c #030D14",
"4  c #0D0C11",
"5  c #050612",
"6  c #150D11",
"7  c #0C1313",
"8  c #0B151A",
"9  c #0D1C1D",
"0  c #091816",
"q  c #1B1212",
"w  c #111B1C",
"e  c #191816",
"r  c #230602",
"t  c #290200",
"y  c #230D02",
"u  c #2A0D02",
"i  c #230E0A",
"p  c #2A0B0B",
"a  c #300D04",
"s  c #241204",
"d  c #2B1303",
"f  c #251804",
"g  c #2B1804",
"h  c #24140A",
"j  c #2A150A",
"k  c #24190C",
"l  c #2C1A0A",
"z  c #301103",
"x  c #30140A",
"c  c #241513",
"v  c #251A12",
"b  c #291A15",
"n  c #2A1215",
"m  c #0A221C",
"M  c #1A231C",
"N  c #282419",
"B  c #322618",
"V  c #292B13",
"C  c #0D1D21",
"Z  c #0A1925",
"A  c #121C21",
"S  c #0E2324",
"D  c #0E272A",
"F  c #142424",
"G  c #11252B",
"H  c #142B2C",
"J  c #192926",
"K  c #17332E",
"L  c #0C2B34",
"P  c #132E32",
"I  c #1B353B",
"U  c #1B3B3C",
"Y  c #173637",
"T  c #0F3433",
"R  c #242B24",
"E  c #282A26",
"W  c #332726",
"Q  c #28342A",
"!  c #34362A",
"~  c #223D3B",
"^  c #293835",
"/  c #333533",
"(  c #341F28",
")  c #1A413B",
"_  c #294239",
"`  c #364539",
"'  c #314D34",
"]  c #404B3D",
"[  c #1A3D42",
"{  c #1A3642",
"}  c #233E44",
"|  c #1C4343",
" . c #1C4B4C",
".. c #1C4748",
"X. c #1D4B54",
"o. c #1D5254",
"O. c #234C4C",
"+. c #264744",
"@. c #344945",
"#. c #29514B",
"$. c #37554A",
"%. c #274C52",
"&. c #235355",
"*. c #255B5C",
"=. c #2B5C5C",
"-. c #285656",
";. c #375A57",
":. c #2A625D",
">. c #3A665A",
",. c #3C684F",
"<. c #295D63",
"1. c #375A62",
"2. c #266362",
"3. c #2A6465",
"4. c #2C6A66",
"5. c #2B656A",
"6. c #2D6B6B",
"7. c #26696A",
"8. c #326B65",
"9. c #326C6C",
"0. c #386866",
"q. c #2D726D",
"w. c #38746B",
"e. c #2B6A73",
"r. c #346A73",
"t. c #2E7474",
"y. c #2D777B",
"u. c #337474",
"i. c #3A7C74",
"p. c #357C7B",
"a. c #3A7C7C",
"s. c #367776",
"d. c #42554D",
"f. c #426658",
"g. c #405D64",
"h. c #446861",
"j. c #43786B",
"k. c #447B77",
"l. c #416C73",
"z. c #3A827D",
"x. c #388479",
"c. c #368B7C",
"v. c #48857A",
"b. c #357D82",
"n. c #3A7F87",
"m. c #427D86",
"M. c #348383",
"N. c #3B8383",
"B. c #3B8B84",
"V. c #358B8B",
"C. c #3B8C8C",
"Z. c #368788",
"A. c #35938D",
"S. c #3B928D",
"D. c #3C988D",
"F. c #3A8B93",
"G. c #3C9393",
"H. c #3C9994",
"J. c #3C959A",
"K. c #3E9A9B",
"L. c #349294",
"P. c #2C8886",
"I. c #3CA29D",
"U. c #3D9BA2",
"Y. c #3DA6A5",
"T. c #3FB0B6",
"R. c #448B84",
"E. c #458686",
"W. c #42938C",
"Q. c #49988B",
"!. c #448B94",
"~. c #449593",
"^. c #439A94",
"/. c #439B9C",
"(. c #479898",
"). c #519C91",
"_. c #47A59B",
"`. c #4EA294",
"'. c #459DA4",
"]. c #44A4A4",
"[. c #49A4A2",
"{. c #43AAA3",
"}. c #49ABA8",
"|. c #52ACA8",
" X c #4BB4AD",
".X c #48B3AA",
"XX c #54B4AC",
"oX c #49ABB3",
"OX c #4AB3B4",
"+X c #4BBCBD",
"@X c #49B8B6",
"#X c #52B9B8",
"$X c #54AEB6",
"%X c #4AC4BB",
"&X c #53C3BA",
"*X c #4EC0A9",
"=X c #4DBDC3",
"-X c #4ABCC5",
";X c #53BDC5",
":X c #4CC2C3",
">X c #4DC6CA",
",X c #51C2C3",
"<X c #5AC7C3",
"1X c #53CBC4",
"2X c #53CCCC",
"3X c #58C8CB",
"4X c #57D5CB",
"5X c #4ECCD3",
"6X c #57CCD5",
"7X c #55D2D3",
"8X c #54D4DA",
"9X c #59D3DC",
"0X c #53DADC",
"qX c #5CDBDC",
"wX c #57D9D3",
"eX c #4ED3D7",
"rX c #61D4CE",
"tX c #62DBD8",
"yX c #61CFDC",
"uX c #5BE3DD",
"iX c #58E5DA",
"pX c #63E3DC",
"aX c #55DCE2",
"sX c #5BDCE4",
"dX c #5BDDE9",
"fX c #61DEE6",
"gX c #55E3E4",
"hX c #5CE3E4",
"jX c #5BEBE5",
"kX c #5DE4EB",
"lX c #5DEBEC",
"zX c #56EBE6",
"xX c #5DE5F1",
"cX c #5EEAF6",
"vX c #5CF1EE",
"bX c #62E3E5",
"nX c #61E6EB",
"mX c #64E9EC",
"MX c #65E8E5",
"NX c #61E7F2",
"BX c #61F4F4",
/* pixels */
"                        O   O O O O O O                                 . $ $ % y r r y r r % & &   X X O O O + O O   O     O   ",
"                          +   + O O O O                 O O               $ * y s s u u y r ; = . .       O O O O + O   O     O ",
"                        + + + +   O O O O @ @ @ > 3 3 3 3 3 3 3 5 @ @ @ : 2 1 k l v B b b b c q & o X         O + O   O   O O O ",
"      X       .   . . $ . . + + +   O # 3 8 9 S D D G G G L G G D D D G K J Q Q Q Q ! ! Q Q E e e : O X     + + + + + + . O +   ",
"        X   . . $ = & $ $ $ $ = . . # 7 9 H U O.O.#.#.%.O.O.O.%.O.O.O.O.#.#.$.#.$.$.f.d.;.;.@./ M : O .     . + . + + o o o o o ",
"        X o & & * * * * * * % $ . . # w K | =.9.s.a.z.i.p.u.u.u.t.y.u.u.s.i.i.x.x.v.R.E.k.k.1.%.K 9   .   . . $ $ % & & & & , o ",
"        o & * * h s s s y s y * & & : F ~ =.z.~.[.}.|.|.[._.[.[.].].{.[._..X_.{._.XXXX$XoX_.E.5.+.F + . . . $ % % % & & , , , , ",
"      X o & < s h s d j j d s s < < M Q #.w.~.|.,X<X3X<X<X<X<X<X1X3X1X1X1X&X4X&X1X4X3X2X2X#X(.a.%.K 4 $ . . $ % % % * , < < , , ",
"    O . & & 1 s d z d d x x l V M M _ ' :.w.^.XX&XrXrXrXtXtXtXpXqXhXsXhXsXtXhXuXwXiXwX7X>X+X/.n.*.| F e 6 & % i r r y < < < < < ",
"      . & * y s d g d d z x l V Q _ ' -.8.x.S._.|.#X<XrXtXpXpXpXbXbXbXhXmXmXMXjXhXqX2X=X@XY.G.b.6.&.+.^ R e 1 y y r y s < f f f ",
"  O . o & & y s d d u u a x B ^ $.,.q.x.x.x.w.x.R.Q.XX&XrXpXmXMXMXnXlXnXNXNXNXfXsX2XOX'.A.x.y.t.s.s.q.:.#.^ V < * y y y f f f f ",
". . . + $ * * s s u y t a n Q ` >.c.D.A.c.q.:.#.=.9.v.XX&XtXpXpXbXbXhXkXNXNXNXxX9X+X/.a.4.o.*.7.c.C.H.B.q.$.! k u y y u s f f g ",
"+ + + $ = * * i y y y u u b / >.x.H..XY.A.4.O.~ ~ -.w.).&XrXpXbXbXhXdXdXNXNXfXdX6XoXZ.1.| Y ..:.P.I.Y.Y.S.>.` B l d d d g f f g ",
"+ + + + $ $ * * * s s c b E @.0.B._..XY.P.4._ K K +.9.~.XXrXtXbXfXdXdXdXdXxXxXdX3XoXb.&.Y T | :.P.Y.&X@X^.j.$._ V l g g g g f g ",
"+ + = + $ $ $ % * k b E / @.=.w.Z.H.I.L.c.4.#.| +.:.x._.&XwXpXjXkXkXkXdXxXNXNXdX6X-XF.e.o...o.2.M.K.{.{.^.v.,.$.` Q B l l d u u ",
"+ + + + . . . $ 2 e / } ;.0.w.i.z.M.P.x.t.4.:.:.>.i.^. X4XiXuXjXnXxXxXxXNXNXNXxXyX-XU.n.r.<.5.e.p.P.A.A.S.v.j.j.f.] ` B l u t t ",
"5 + O 5 O +   . # J @.8.p.C.B.N.t.3.<.<.<.6.p.N.D._.@X&XiXiXjXmXNXcXxXcXcXcXcXzXdX6X-XoXU.F.b.b.e.7.5.9.s.N.R.Q.E.j.d./ n a t t ",
"5 5 O O O     . 8 ^ =.a.^._./.Z.2.o.[ [ &.6.B._.XX&X4X4XiXiXjXjXxXxXxXxXcXcXcXkXxXaX8X;X-XoXF.b.2.o...o.:.x.Q.|.).v.g.] ( a t t ",
"5 O O O O   O # S | e.F. X@X/.Z.<.[ L Y O.q.S.XX&XrXrXwXiXiXiXiXsXsXdXdXaXaX0X0XaX8XdXyX;X;X'.b.%.{ G L O.i.^.XXXX).k.d.( ( p p ",
"O O 5 O 3 8 C G { &.t.L.Y.oXK.M.<...Y U &.9.C.}.#X&X&X%X*X%X&X%X,X;X>X;X-X-X-X-X-X-X-X-X;X-XF.e.} G 8 9 ) :.B.[.|.).k.g.] / ( ( ",
"O O @ 3 Z L U O.*.5.b.P.V.A.M.y.2.*. .#.=.r.z.!.~./.^.H.H.H.H.J.G.K.J.J.J.J.J.J.L.H.K.U.U.F.r.&.P Z # 4 J +.6.M.!.m.m.l.g.g.g.g.",
"  X @ m P ..<.y.b.n.p.t.6.6.4.6.q.7.q.q.9.9.6.6.6.9.5.4.6.2.3.2.3.2.5.5.5.3.2.2.5.5.6.5.5.<.%.Y C +     7 K _ :.9.r.m.m.m.m.m.m.",
"    > m ) 2.Z.'.'.F.n.<.O...&.<.y.V.H.S.z.9.-...U I Y I U U U Y U U U U U U U U I U U [ Y Y H 9 4 .   . o 0 F ^ O.=.n.m.'.$X$X$X",
"    > S  .t.J.oXOX'.p.-.I Y ..<.M._.@X{.L.u.&.Y A C Z C C C S S m m Z Z A A A A Z C w S S 9 9 7 # + = # # > : m K O.m.m.$X;XyXyX",
"  X > S #.q.^.OXOX'.a.-.{ Y X.5.G.OX1X%XY.p.-.I A A Z 8 m 0 m S m m m 9 m 9 w A A A A F 9 9 9 w w w w 9 m 0 m m K O.t.G.oX,X6X9X",
"    > m ) :.B.(.[.(.b.1.X.X.<.b.{.&X4X1X.XG.6.O.[ I P Y ) ) T Y Y T Y Y U U ~ U [ | U [ ) U ) U } ~ ~ ~ ) K ) ) ..:.s.S.].oX#X$X",
"  X X m K #.>.k.E.E.a.s.y.b.L.U.+X2X0XwX,X[.E.r.3.3.<.:.2.2.2.2.:.:.2.3.4.5.6.6.6.6.6.7.7.6.6.6.6.6.9.5.:.4.7.4.q.t.p.z.n.E.!.E.",
"    X , M R _ $.f.0.k.Z.L.U.T.-XeX0X0X0X2X;X}.(.~.C.C.A.A.A.A.A.L.A.L.G.!.J./.K./././.K.K.U.K.K.K.K.H.G.^.I.I.L.S.V.p.8.0.=.;.;.",
"    . + & 2 N E / ;.i.!.oX-X5XeXiXaXgXgX0X6X<X;X#X#X@X*X%X@X*XT.@X+X+X+X+X+X&X+X,X,X=X=X=X=X-X-X+X&X=X-X%X:X%X%X.XH.p.=.+.^ E E ",
"    . . $ & ; j E @.0.~.oX5XaXaXgXgXgXgXsXtXtXtXyXwXwX4X4XwXiXiX0X0X0X8X9X7X7X2X2X2X2X2X5X5XeXeX6X9X9X8X8X0X5X1X.XH.w.#.E b ; ; ",
"      . $ $ % u B / >.k./.OX>XeX0XgXgXzXlXnXbXbXbXbXpXuXzXiXzXzXzXzXkXhXqX2X,X#X@XOXoXOXOX+X-X6X6XsXhXhXqXwX>X@X_.z.:._ M * $ $ ",
"      . $ % % t j N ` 8.N./.OX%X5X0XgXzXlXmXmXmXMXMXMXjXzXiXzXzXBXBXvXhX7X:XoX[.G.C.V.V.F.L.Y.$X6XsXnXhX0X>XT.K.z.7._ K q $ . . ",
"O   + . $ % % % b b / ^ $.w.V._.+XeXgXzXvXmXmXmXMXMXbXhXzXzXvXvXBXBXmXsX:X[.E.u.3.=.&.&.=.<.y.K.-X6XdXaX;XoX!.e.-.| H M : o   . ",
"  O   + . = ; p n b b R ^ #.:.z.Y.:XaXzXlXmXnXbXfXbXbXhXgXgXgXxXvXmXkX6XoXF.5. .I P D G P [ <.n.oX;XyX6X;X!.5...K F 0 : o       ",
"O   O + = = % i i i u s k M ` 0.A. X2XaXhXkXfXfXfXfXfXkXdXhXdXdXlXsX9X=X/.u.O.G 7 4 O @ 8 G X.r.(.$X;X;X'.r.%.G 7 +   X X X X X ",
"  O O + = = ; c p y y y s v Q $.i.~.OX>X8X9XtXsXbXfXfXkXdXaXdXaXaX6X=X].b.-.Y 8 +   X > C P X.5.!.'.$XoX!.1./ e $ . .   X X X X ",
"O   O O # = ; c c i r r * < N _ -.i.D.Y.@X1X7XqXbXbXkXkXdXaX8X-X-XT.U.b.<.) C @   @ 0 F U  .*.u.m.!.!.m.0.@.E 6 $ . . . o o o X ",
"    O   = = ; c i p r y y s e R _ #.8.p.^. X1XwXhXlXlXlXdX9X5X-XU.F.y.o.[ S @   X 0 H O.2.u.a.m.k.l.l.>.$./ b i % $ $ $ o o o & ",
"      + o & * 1 h h h s p h c N R Q +.-.i.^.@X4XiXlXvXkXxXaX-XU.n.e.X.{ S 3 X   > M  .6.C.^.Q.W.i.>.@.! Q b b p t y * * * * < , ",
"        o - * s j j h h j p h i 1 e M U -.x.{.:XwXhXlXlXdX6X-XJ.b.X.G Z 5   @ @ m ) :.V.}.@X_.Q.0.$.E V l j j x t u u u y < < < ",
"      . . & 1 1 k k k j b i i % $ $ 2 J _ 8.D..X1XwXhXhXsX6XOXF.X.{ Z 5 O @ > m K #.t.D.XXXX|.R.,.' b d u u t a z x u d u y s s ",
"        . * , k l k k b n h r ; $ $ o e Y -.i.Q.|.&X4XqXqX7XoXV.X.L Z 5 O 0 D Y ..:.x.Q.`.`.v.j.@.Q k y u u d x z z z u d d s s ",
"      . o o , < h k v b b c ; % $ . . # M ~ -.w.R.`.*X4XwX4X.XP.X.L 5 5 8 T ..3.w.i.c.R.v.v.f.d._ N h y y y u z z z z d d d u d ",
"      . o , < f h k c b c c q 6 . . . $ e N ^ $.h.v._.*X1X4X.XA.X.{ 3 Z L  .7.V.S.W.R.j.h.d.] ` W V f s y s u z z z z z z u d d ",
"      . o , < < k k c c n n q 6 # o   o - 1 N Q ] f.Q.|.&X&X*Xc.*.T Z D [ 7.V.{.[.`.v.f.d.! B B b v h h h y s u d u u u z z z d ",
"      . . & , < 1 h 1 v q A 6 6 # O X O o & q b B ] j.).*X*X.Xc.2.| L { X.t.~.$X|.).j.d.! x j u j h c h h i s u u u d d u d z u ",
"      . o & , , 1 1 q q q e 6 4 # O     . $ r p B ] ,.v.v.*Xc.c.7.o. .o.7.b.F.(.).E.f.` B u * r * 1 q q q ; s * y * y y y u u u ",
"      .   o & & , * ; 6 6 6 6 = # O O + $ $ % p g V ' ,.v.c.c.x.t.q.7.e.y.b.Z.N.a.0.@.Q l y % % & = q - - ; & * % * * % y y y y ",
".   .     o o o & & & & & = 4 + + O 5 + + = ; p j B ! ` ' ,.w.v.n.n.J.n.n.b.r.1.;._ R b ; % $ $ = + 4 4 + 5 # o o $ & $ & & % & ",
".   . . . . . o . o & & + & = + O O O 5 = = r u p l B V ' ' ,.w.!.'.oX'.!.a.1.} R M w * % $ . & + # + 4 # @ + . . . $ . % $ $ $ ",
". . . .   . o o   o & . & $ + + 5 5 5 + = = p p d g l g V V ' f.!.[.;XoX!.r.} E q 4 $ . . .     O O 5 O O O       . . . . $ . $ ",
". . . . . o o X X o & $ $ = $ $ + O 5 5 + 6 r i u d d g s V ' ;.n.'.oX'.F.1.^ q % $ $ $ . o o O O 5 O 5 O O O O O . . . . o $ . ",
"% $ & & o o o o o o & & * % ; $ + + + + + % * u u s u u y s Q ' 0.m.!.n.r.%.E 6 % $ $ $ $ . $ . 5 O O O 5 O O X   o o $ % & $ & ",
"& - * = - & , , , * * * * ; % $ + + + + = ; i u s u u y * < M ^ %.1.r.<.%.~ E ; % % % % * % & % # # # @ @ O . o & % & & & * * & ",
"1 1 1 2 1 < 1 < < < s u u i ; ; = . + + + * i u d a u * < < 2 M J { { { I N v 1 y * r * * * * & . # . + + o & & * * * y s * y y ",
"1 1 1 1 1 k 1 1 k f s j h j i % $ .   + . ; y u z u u < s < , : 8 A A A e q q * s y u u u s < & - o o o & & & < * s * u s u d s ",
"k 1 1 k k k k k f j l d j j i % $ + . . . * y j u d s < * < & o = + # + 4 = ; s u s d d s s y * , o o o o & * * s s s d d d d z ",
"e k c f k h f h h l j j j h i ; $ .   . + * r u j d u y < * & &   O   . $ = * s d d d d d s s * o o . o o & * < y s d d d d g d ",
"k f v h h l l l l l h j h h y * & . .   $ * y h u j j s < * & & .         $ * h d d d d d s y < & o o X & , * 1 s s g d z g z g ",
"k f f f f d g l j j j h i h * $ o . . . $ & * u s j f s s s , & +     . . % y s d d j d g s < * o o O X o - * h s s f j g z g g ",
"f f f g d j g x j j h u s 1 * & o . . . + * * y u h j j f h ; & o X . X & * * u u j x d d s < & o o X O # o , < f h g g g x g l ",
"g f g s j x j x x j j h 1 * & o o . . . $ & ; i h s f d f h 1 , o o X o o & * u u d d d d s < < o o   X o & * 1 h f j l g g g x ",
"s g s g j d x j x x h s < , & & . . . . & & * h s h h j j k < 2 : X X X o & * s u j d d f s < & o X   X # o * 1 s h g x g l l l ",
"f f f s d j x x x p p s < < , o o o . . o $ * i i h j j f s 1 < , X X X o & * u u d x d h f < & o o   O X & - h h h g g x g x g "
};
