/* XPM */
static char *collectible_bomb_21735358550[] = {
/* columns rows colors chars-per-pixel */
"64 64 111 2 ",
"   c #000000",
".  c #0C0606",
"X  c #060C02",
"o  c #080E04",
"O  c #140A09",
"+  c #1D0E0D",
"@  c #061101",
"#  c #0B1103",
"$  c #0C1F02",
"%  c #17100A",
"&  c #1E100D",
"*  c #23110F",
"=  c #251F0F",
"-  c #201010",
";  c #3C1F1B",
":  c #0D2002",
">  c #112C01",
",  c #153301",
"<  c #1E3205",
"1  c #193D00",
"2  c #293D08",
"3  c #333C0F",
"4  c #313211",
"5  c #43311B",
"6  c #532A25",
"7  c #563225",
"8  c #5B3B26",
"9  c #5E312A",
"0  c #60312B",
"q  c #653A2A",
"w  c #743B33",
"e  c #204A00",
"r  c #235500",
"t  c #265B00",
"y  c #2F5B06",
"u  c #345409",
"i  c #3F590F",
"p  c #2A6700",
"a  c #2F7400",
"s  c #317601",
"d  c #347C00",
"f  c #3D7D05",
"g  c #52531A",
"h  c #47740B",
"j  c #4B770E",
"k  c #466710",
"l  c #5F731A",
"z  c #6D4F29",
"x  c #6E502A",
"c  c #72512C",
"v  c #75652A",
"b  c #79642B",
"n  c #717424",
"m  c #767F24",
"M  c #7F7A2A",
"N  c #8B473E",
"B  c #8C483F",
"V  c #91523F",
"C  c #9E733D",
"Z  c #A07A3C",
"A  c #9C4F45",
"S  c #9F5145",
"D  c #A15446",
"F  c #AB574C",
"G  c #AA584C",
"H  c #A76447",
"J  c #AD6F46",
"K  c #AB7046",
"L  c #B27D47",
"P  c #C36355",
"I  c #DA6F5F",
"U  c #C97356",
"Y  c #DB6F62",
"T  c #DF7162",
"R  c #E27364",
"E  c #EC7766",
"W  c #E47A62",
"Q  c #EB7866",
"!  c #F37B6B",
"~  c #FA7F6F",
"^  c #368500",
"/  c #3A8601",
"(  c #368800",
")  c #3C8802",
"_  c #418605",
"`  c #458008",
"'  c #4E860C",
"]  c #47880A",
"[  c #50860E",
"{  c #558610",
"}  c #668617",
"|  c #668619",
" . c #688519",
".. c #798424",
"X. c #82852A",
"o. c #88842A",
"O. c #938433",
"+. c #A5843D",
"@. c #B48446",
"#. c #BE834B",
"$. c #CF8155",
"%. c #D08156",
"&. c #D08158",
"*. c #E3825F",
"=. c #E68262",
"-. c #EB8165",
";. c #EF8168",
":. c #F08166",
">. c #F5816A",
",. c #FE816F",
"<. c #FF8270",
/* pixels */
"^ ( { X.@.=.<.<.<.<.<.<.<.<.<.<.<.<.<.<.<.<.<.<.<.<.<.<.<.<.<.<.<.<.<.<.<.<.<.<.<.<.<.<.<.<.<.<.<.<.<.<.<.<.<.<.<.<.=.@...[ ( ( ",
"( / ' X.@.=.<.<.<.<.<.<.<.<.<.<.<.<.<.<.<.<.<.<.<.<.<.<.<.<.<.<.<.<.<.<.<.<.<.<.<.<.<.<.<.<.<.<.<.<.<.<.<.<.<.<.<.<.=.@.X.{ ( ( ",
"[ [ | O.#.=.,.>.>.=.=.=.=.=.=.=.=.=.=.-.=.=.=.=.=.=.=.=.=.=.=.=.=.=.=.=.=.=.=.=.=.=.=.=.=.=.=.=.=.=.=.=.=.=.=.-.>.<.=.#.O.| [ [ ",
"X.X.O.@.$.-.>.=.&.#.@.@.@.@.@.@.@.@.@.@.@.@.@.@.@.@.@.@.@.@.@.@.@.@.@.@.@.@.@.@.@.@.@.@.@.@.@.@.@.@.@.@.@.@.#.&.=.>.! &.@.O.X.X.",
"@.@.#.&.=.>.;.$.@.O.X.X.X.X.X.X.X.X.X...X.X.X.X.X.X.X.X.X.X.X.X.X...X.X.X.X.X.X...X.X.X.X.X.X.X.X.X.X...X.X.O.@.$.;.>.=.&.#.@.@.",
"=.=.=.;.! <.-.#.O.| ' { { ' [ [ [ [ [ [ [ [ [ [ [ { [ [ [ [ [ [ { [ [ [ { [ [ [ [ [ { [ [ [ [ [ [ { [ [ { { | O.#.-.,.>.;.=.=.=.",
"<.<.~ >.;.=.&.+...' / _ ] ' ' { [ [ [ [ [ [ { ' [ [ [ [ [ [ [ { [ [ [ [ [ [ [ [ [ [ [ ] f s a s a s s s s s j n C U R Q ! ~ <.<.",
"<.<.>.=.$.#.+.o.| ] ) { | ..X.X.X.X.X.X.X.X.X.X.X.X.X.X.X.X...X.X.X.X.X.X.X.X.X.X.X.m l k y r r r r r r r r u g c V F P Y ! <.<.",
"<.<.;.&.@.O...| { _ ] | o.+.@.@.@.@.@.@.@.@.@.@.@.@.@.@.@.@.@.@.@.@.@.@.@.@.@.@.@.@.+.b g 2 > , , , , , , , 2 4 5 7 w A P Q <.<.",
",.<.-.#.O.| ' ' _ / ' ..+.&.=.=.=.=.=.=.=.=.=.=.=.=.=.=.=.=.=.=.=.=.=.=.=.=.=.=.=.=.U A 9 < X @ @ @ @ @ @ X X # % & ; w G R <.<.",
",.<.=.@...{ ^ ^ d s h n C U R Q ! >.<.<.<.<.<.<.<.<.<.<.<.<.<.<.<.<.<.<.<.<.<.<.<.<.T G w ; % O .                   - 0 S T <.<.",
",.<.=.@.X.' ^ a p t u g x A G P T ! <.<.<.<.<.<.<.<.<.<.<.<.<.<.<.<.<.<.<.<.<.<.<.<.! J A w 6 ; - .                 - 0 S T <.<.",
",.<.=.@.X.{ d p e 1 2 4 4 7 w S P Q <.<.<.<.<.<.<.<.<.<.,.<.<.<.<.<.<.<.<.<.<.<.<.<.! Y F F A 9 ; O                 - 0 S R ,.<.",
",.<.=.@...{ s t 1 $ o # & - ; w G R <.<.<.<.<.,.,.<.<.<.,.,.<.,.<.<.<.<.<.<.<.<.<.<.~ ! ! Q F A 6 &                 - 0 D Y <.~ ",
"<.<.=.@.X.[ s r , @         - 0 S T <.<.<.<.<.>.;.-.=.=.-.=.-.W =.=.=.=.=.=.-.;.~ <.<.<.<.<.T S q = X X X           - 0 D T <.<.",
"<.,.=.@.X.[ s r , @         - 0 S T <.<.<.,.>.=.$.#.@.@.@.@.@.@.@.@.@.@.@.@.#.&.=.>.<.,.<.<.W H x 3 > : @ X         - 0 A T <.<.",
"<.<.=.@.X.[ s r , @         - 0 S T <.<.<.<.;.%.@.O.X.X.X.X.X.X.X.X.X.X.X.X.O.@.$.;.<.<.<.<.W K v y e , $ X         - 0 S T <.<.",
"<.<.=.@.X.[ s r , @         - 0 S T <.<.<.<.=.#.O.| ' [ [ ' [ [ [ ' { [ [ [ | O.#.-.<.<.<.<.=.L C f p e > @         - 0 S T <.<.",
"<.<.=.@.X.[ s r , @         - 0 S T <.<.<.,.=.@.X.[ ^ ^ d s s s s a s s a s j M L =.<.<.<.<.=.@.X.[ s r , @         - 0 S T <.<.",
"<.<.=.@.X.[ s r , @         - 0 S T <.,.<.,.=.@.X.[ d s p t r r r r r r r r i b J W <.<.<.<.=.@.X.[ s r , @         - 0 S T <.<.",
"<.<.=.@.X.[ s r , @         - 0 S T <.<.<.<.=.@.X.[ d p r 1 , , , , , , , , 3 z H W <.<.<.<.=.@.X.[ s r , @         - 0 S R ,.<.",
"<.<.=.@.X.[ s r , @         - 9 S T <.<.<.<.=.@.X.[ s t 1 $ @ @ @ @ @ @ @ @ = q D R <.<.<.<.=.@.X.[ s r , @         - 0 D Y <.<.",
"<.<.=.@.X.[ s r , @         - 0 S R <.<.<.<.=.@.X.[ s r , X                 - 0 S T <.<.<.<.=.@.X.[ s r , @         - 0 S T ,.<.",
"<.<.=.@.X.[ s r , @         - 0 S T <.<.<.,.=.@.X.[ s r , @                 - 9 S T <.<.<.<.=.@.X.[ s r , @         - 0 S T <.<.",
"<.<.=.@.X.[ s r , @         - 0 S T <.<.<.<.=.@.X.[ s r , @                 - 0 S T <.<.<.<.=.@.X.' s r , @         - 0 S T <.<.",
"<.<.=.@.X.[ s r , @         - 0 S T <.<.<.<.=.@.X.' s r , @                 - 0 S T <.<.<.<.=.@.X.[ s r , @         - 0 S T <.<.",
"<.<.=.@.X.[ s r , @         - 0 S T <.<.<.<.=.#.O.| j k 3 = + * - - - - - - ; w F R <.! ;.-.$.+...' s r , @         - 0 S T <.<.",
"<.<.=.@.X.[ s r , @         - 9 S T <.<.<.<.;.$.@.O.M c z q 9 0 0 0 9 0 9 9 w S P Q >.=.$.#.+.X.| ] s r , @         - 0 S T <.<.",
"<.<.=.@.X.[ s r , @         - 0 S T <.<.<.<.>.=.$.#.L J H D A S D S S S S S G P T ! ;.&.@.O... .[ _ s r , @         - 0 S R ,.,.",
"<.<.=.@.X.[ s r , @         - 0 S T <.<.<.<.,.>.:.=.=.Q W R R T T T T T T T R Q ! >.=.#.O.| ' ] _ ) s r , @         - 0 D Y <.<.",
"<.<.=.@.X.[ s r , @         - 0 A T <.<.<.<.<.>.;.=.=.=.=.=.=.=.=.=.=.=.=.=.-.;.>.,.=.#.O.} [ ] _ ) s r , @         - 0 S T <.<.",
"<.<.=.@.X.[ s r , @         - 0 S T <.<.<.<.>.=.%.#.@.@.@.@.@.@.@.@.@.@.@.@.#.$.=.>.! &.@.O... .{ _ s r , @         - 0 S T <.<.",
"<.<.=.@.X.[ s r , @         - 0 D Y <.<.<.<.;.%.@.O.X.X.X.X.X.X.X.X.X.X.X.X.O.@.$.;.>.*.$.#.+.X.| ] s r , X         - 0 S T <.<.",
"<.<.=.@.X.[ s r , @         - 9 A R ,.<.<.,.=.#.O.| [ ' [ ' [ { ' [ [ [ [ [ | O.#.-.,.>.:.=.%.+...' s r , @         - 0 S T <.<.",
"<.<.=.@.X.[ s r , @         - 0 S T <.<.<.<.=.@...{ / ^ d s a s s s s s s s j M L =.<.<.<.<.=.@.X.[ s r , @         - 0 S T <.<.",
"<.<.=.@.X.[ s r , @         - 0 S T <.<.<.<.=.@.X.[ ^ a p t r r r r r r r r i v K W <.<.<.<.=.@.X.[ s r , @         - 0 S T <.<.",
"<.<.=.@.X.[ s r , @         - 0 S T ,.<.<.<.=.@.X.[ s p r 1 , , , , , , , , 3 z H W ,.<.<.<.=.@.X.{ s r , @         - 0 S T ,.<.",
"<.<.=.@.X.' s r , @         - 0 S T <.<.<.<.=.@.X.[ s t 1 $ o X @ @ @ @ @ @ = q D R <.<.<.<.=.@.X.' s r , @         - 0 D T <.<.",
"<.<.=.@.X.[ s r , @         - 0 S T <.<.<.<.=.@.X.[ s r , @                 - 0 S T <.<.<.<.=.@.X.[ s r , @         - 0 S T <.<.",
"<.<.=.@.X.[ s r , @         - 0 S T <.<.<.<.=.@.X.{ s r , @                 - 0 S T <.<.<.<.=.@.X.[ s r , @         - 0 S T <.<.",
"<.<.=.@.X.[ s r , @         - 0 S T <.<.,.,.=.@.X.[ s r , @                 - 0 S T ,.,.<.<.=.@.X.[ s r , @         - 0 S T <.<.",
"<.<.=.@.X.[ s r , @         - 0 S T <.<.<.<.=.@.X.' s r , @                 - 0 A R <.,.<.<.=.@.X.[ s r , @         - 0 S T <.<.",
"<.<.=.@.X.[ s r , @         - 0 S T <.<.,.,.=.$.O.| j i 3 = - - - - - - - - ; w F R <.<.<.<.=.@.X.[ s r , @         - 0 S T <.<.",
"<.<.=.@.X.[ s r , @         - 0 S T <.<.,.,.=.$.@.O.M b z q 9 0 0 0 0 0 0 0 w S P Q <.<.<.<.=.@.X.[ s r , @         - 0 S T <.<.",
"<.<.=.@.X.[ s r , @         * 9 S T <.<.,.<.>.=.&.#.L K H D S S S S S S S D F P T ! <.<.<.<.=.@.X.[ s r , @         - 0 S R ,.,.",
"<.<.=.@.X.[ s r , @         - 9 S T <.<.<.<.,.>.;.=.W W W R T T T T T T R Y R Q ! ~ <.,.<.<.=.@.X.[ s r , @         - 0 D Y <.<.",
"<.<.=.@.X.[ s r , @   . O + ; w G R <.<.<.<.<.<.<.<.<.<.<.<.<.<.<.<.<.<.,.<.<.~ <.<.,.>.;.=.$.+...' s r , @         - 0 S T <.<.",
"<.<.=.@.X.[ s r , @ . * ; 6 w S P Q <.<.<.<.<.<.<.<.<.<.<.<.<.<.<.<.<.<.<.<.<.<.<.,.>.=.$.#.+.X.| ] s r , @         - 0 S T <.<.",
"<.<.=.@.X.[ s r , @ O ; 0 A G F T ! <.<.<.<.<.<.<.<.<.<.<.<.<.<.<.<.<.<.<.<.<.<.,.,.-.$.@.O...} { _ s r , @         - 9 S R <.<.",
"<.<.=.@.X.[ s r , @ - 6 A F Q ! ! ~ <.<.<.<.<.<.<.<.<.<.<.<.<.<.<.<.<.<.<.<.<.<.<.,.=.$.O.| ' ] _ / s r , @         - 0 S T <.<.",
"<.<.=.@.X.{ a r , @ + 6 A F R W W =.=.=.=.=.=.=.=.=.=.=.=.=.=.=.=.=.=.=.=.=.=.=.=.=.U +...' / ^ d s p e > o         - 0 A R <.<.",
"<.<.=.@...{ s r , @ O ; 9 A S H K L @.@.@.@.@.@.@.@.@.@.@.@.@.@.@.@.@.@.@.@.@.@.@.@.+.X.} ] d s p t e , $ X         - 9 S Y <.<.",
"<.<.-.@.X.' s r , @ . * ; 6 q x v M X.X.X...X.X.X.X.X.X.X.X.X.X.X.X.X.X...X.X.X.X.X...} { _ d p r 1 > $ @ X         * 0 D Y <.<.",
"<.<.=.@.X.' s t , @   . O + = 3 i j ' [ { { [ [ ' { ' { [ [ [ [ { [ [ [ [ [ { [ { ' ' ] _ ) d t 1 $ o X X           - 0 A R <.,.",
"<.<.-.#.O.| h u 2 X         X > e p s s s s s s s s s s a s s s s s s s s s s s s s d s s s p e > o           O O + ; w F R <.<.",
"<.<.;.$.@.O.n g 4 o         X : , e r r r r t r r r r r r r r r r r r r r r r r r r r r r r e , : X         . - ; 6 w A P Q <.<.",
"<.<.>.*.U $.C c 5 +         X @ $ > , , , , , , , , , , , , , , , , , , , , , , , , , , , , > $ @ o         O ; 0 A G P Y ! ,.,.",
"<.<.,.>.-.=.U V 7 &           X o o @ X @ @ @ @ @ @ @ @ @ @ @ @ @ @ @ @ @ @ @ @ @ X @ @ @ @ X X X           & 6 A F R E ! ~ <.<.",
"=.=.=.:.>.,.R G w ; + - - - - - - - - - - - - - - - - - - - - - - - - - - - - - - - - - - - - - - - - - - - ; w F R ~ >.:.=.=.=.",
"@.@.#.$.*.>.Q P S w 0 0 9 0 0 0 0 9 0 0 9 9 9 0 0 0 0 0 0 0 0 9 9 9 9 0 0 0 0 0 0 9 0 0 9 0 0 0 0 9 0 0 0 0 w S P E >.=.U #.@.@.",
"X.X.O.@.$.;.! Y P F S S A S S S S S S S S D S S S S S S S S S D S D S S S S S S S S S D S S S S S S S S S S G P Y ! ;.$.@.O.X.X.",
"{ ' | O.#.-.~ ! Q R T T T T T T T T T T T T T T T T T T T T T T T T T T T T T T T T R Y T T T T Y T T T T T R Q ! ,.-.#.O.| { { ",
"( ( ' X.@.=.<.,.<.<.<.<.<.~ <.<.<.<.<.<.<.<.<.<.<.<.<.<.<.<.<.<.<.<.<.<.<.<.<.<.<.<.<.<.<.<.<.<.<.<.~ <.<.<.<.<.,.,.=.@.X.[ ( ( ",
"( ( ' X.@.=.<.<.<.<.<.<.<.<.<.<.<.<.<.<.<.<.<.<.<.<.<.<.<.<.<.<.<.<.<.<.<.<.<.<.<.<.<.<.<.<.<.<.<.<.<.<.<.<.,.<.<.,.-.@.X.[ ( ( "
};
