/* XPM */
static char *collectible_bomb_11735358438[] = {
/* columns rows colors chars-per-pixel */
"64 64 49 1 ",
"  c #000000",
". c #070800",
"X c #0C0D01",
"o c #100E01",
"O c #0F1103",
"+ c #141501",
"@ c #181701",
"# c #161802",
"$ c #191900",
"% c #232402",
"& c #272800",
"* c #2A2B01",
"= c #2F3102",
"- c #343401",
"; c #3C3C01",
": c #403E01",
"> c #454601",
", c #494601",
"< c #474801",
"1 c #4A4B01",
"2 c #4F5002",
"3 c #535501",
"4 c #565901",
"5 c #5E5F01",
"6 c #5F6100",
"7 c #616300",
"8 c #676800",
"9 c #6B6D00",
"0 c #6F7200",
"q c #767700",
"w c #747800",
"e c #7B7C00",
"r c #7E8100",
"t c #828400",
"y c #878901",
"u c #898C01",
"i c #8F9100",
"p c #919300",
"a c #969900",
"s c #9C9D00",
"d c #9EA000",
"f c #A3A600",
"g c #A7A900",
"h c #ABAE00",
"j c #AFB200",
"k c #B3B400",
"l c #B6B800",
"z c #BCBF00",
"x c #BDC001",
/* pixels */
"99quskzzzxzzzzzxzzxzxzzzzxzzzzzzzxzzxzxzzxzzzzxzzzxzzzkduq5>&X  ",
"99quskxxzzzzxzzzzzzxzzzzzzzzzzzxzzxzzzxzzxzxzxzzzzzzzzkduq5<&X  ",
"qerushkhhgfffgdfffffffffffffffffffffffffffffffffffffffdaye8,*X  ",
"uuupassuteqqwwwwqqqqeqqqwqqwqqqqqqwqqwqqqwqqqwqwqqwqqqqetye4-+  ",
"fssaput063>,<<<<>>>><<>,<,<><><<>>>><<<<<<<>>><>,<,<<<28rpu8;+  ",
"kkhsue83;%#####+####+@+@###############+###########+##*3eds9>#  ",
"zzkst83:*#XXXXX+++@@@@@@$@$@#@#+.. ..XXXXXXXXXXXXXXXXX%2effq<#  ",
"zzhuq2:;-*&&***-;><,<<,,><<,,,;*$..O@%&*&&**&&&&***&*&;6thfq<+  ",
"zzgy7;*-;;>>>:<370qqqqqqqqqeqq8<*X.$*;>>:>:>>>:>>>>>><2qihfq<#  ",
"zzge1%#*>355558eusgfgfffgfffffi8>OX%;355655656655555568tskfw<+  ",
"zzfq<#X&>59999qydklxxzxxzzzzzxgr3=%;38qwqqqwqqqqqqqqqqepfkfq<#  ",
"xzfq<#X&>49999eydkxxxzzzzzzxzzjuq3270ruuuuuuuuuuyyuuyyisfkgq<#  ",
"xxfq>#X*>59999qydkxxxxxlzxxzzzkfireyusdddddddddddsddsdfhklfq<#  ",
"zzfq<#X*>59999wuskxxxxxxzzzzxzzkhgfhhjkkkkkkkkkkkkkkkkkklzfw>#  ",
"zxfq<#X&>59999qtisghklxxxlllhgfffffffffffffffffffgfdffhhkzfw>#  ",
"zxfq<+X%>59999900qtpfkxxxxkfirqqqqqqqqqqqqwqqqqwwwwwqqrpfkfq>#  ",
"xzfq<#X&:5999986313qihzzzxhiq3,,><<<>>,,<<<<><<<<<<<<<3qijfw<#  ",
"xzfq>#X&,5999971-%*3rgzzxzgr3*#@#############++####+##*3rgfq<#  ",
"zxfw<#O*,9q9873:*$%3egzzxzgr3*@@@+@@#@@@@+@@@$@@@@@@$#*3rgfw<#  ",
"zzfq>#+-3qr052:;-*;7ygxzzzhiq3<<<<,,<<,,<<>,<<,<<<<<<,3qihfw<#  ",
"xzfq>#+;7uiq3-*-;:30uhzzzxlfpeqqqqqqqqqqqqqqqqqqqqqqqqrpfkfq<#  ",
"zxfq>##>0sdq1%@*:38tskzzzzllhhfgfgffggffgffgfffggfffggghklfq<#  ",
"zzfw>#+<qfge4*%;29rpfkzzxzzzzzlkhgghlllkhgffffffffffffghkzfq<#  ",
"zxfq,#+,qfjpq4250risglzzzzxzxzkfirrpflldprqqqqqqqqqqqqrpfkfq<#  ",
"zzfq>#@<qgkfpeetisdhklxzxzxzzzhpq33qphhiq3<<<><<>><><<3qujfq>#  ",
"xzfq,#@<wflkhhhhjjkllzxzzzxzzxgr3**3tggr3*####@+######*3ehfq>#  ",
"zzfq>#+:8iffffffffgjkzxzxzzzzzfq,##:8ua02&@@@@@@@$@$##*3rhfq>#  ",
"xxfq>#o=<8qewqwqwqridkzxzzxzxzfq,#X*18q741<,><<>,<><,<3qphfq>#  ",
"zzfw<#X@*:>><>>>>>3qijxzzzxzzxfw>#X@=:147qqqqqqqwqeqqqtpfkfq>#  ",
"zxfq<# .X+########*3rgzzzxzzzzgw># .o+&20pffgffhffffffghkzfq<#  ",
"zzfq<# ..OXXXXX++#*3rgzzzzzzxzdw># ..X%>8pffffffffffffghklfw>#  ",
"zzfw<+.X@%*****-;>3qijzxxzzzzzfw>#.o#%->59qqqqqqqqqqqqrpfkfq>#  ",
"zzfq<#.@*;:>>>1370tiflzzzzzzzzgq<#.#*;>>>,>>>><><>><<<3qihfw>#  ",
"xzfw<#X%;355558eusghklzzzzxzxzfq>#X%;33>=%############*3rgfq,#  ",
"zzfq>#X*>59999qudklkhgffffhhklhe3=%;3983;%@##@#@@@@@##*3rgfw>#  ",
"xzfq>#X&>59999qudkkfitqqqqrpfkhpq3279rt072,>,,,><,><<<4qijfw>#  ",
"zzfq>#X*:58999qudkhiq3>><<3qihkfpreyisauteqqqqqqqqqqqqrifkfq>#  ",
"zxfw<#X*>59999qudkgr3*####*3rhlkhgfhhkkjhggggfgffgfgfgghkzfq<#  ",
"zzfq<#+*,8qqqqrpfkfq># ..X%2egzzzzzzzzlkhgffffffffffffgjklfq>#  ",
"xxfq<+o-4euuuuisglfq>#.O@%;7tgzxzzzzzzkfirqqqqqeqqqqqqrifkfq>#  ",
"zzfw<##;7uddddfgklfq>#X#&;20ijzzxxxzzzhi031>,>>>>>1><>3qijfq>#  ",
"zxfq<@#>0skkkkkllzfq>#X%;20rajzxzzzzxzgt3*@###########*3egfq>#  ",
"zzfq,++;8iffffffgfi8;+o*>6wridffffghklfq>#...XXOOXO.XO%2egfq>#  ",
"zzfw<$X*18qqqqqqqq81*XX*>6900qwqqqrifkfq>@ O#%&%*&&*&&;6yhfq>#  ",
"zxfq<#.$*:>>>>>>>>:*@XO&>5663,<<,>30ihfq>@.@=;>>>>>:>>20ijfq>#  ",
"xxfq>#..OO########+XX X&>662-%+###=3rgfq>#O%;2575555669tajfq<#  ",
"zzfq># ..XXXXXXXXoXXXX@-1661-$XXOX%2egfq1#O*18qqeqqqqqrpfkfq>#  ",
"zxfq>#.X@%*******&***&=>2872:-&&**;5ygfq>#O-3euuuyuyuuisglfq>#  ",
"zzfq>#.@*;>>>;>><>>;>><358853<>>><30ihgw<@+;8uddsdsdddfhklfq>#  ",
"zzfq>#X%;35555555755556888887655568rskfw<++<0skkkkkkkkkllzfe>#  ",
"zxfw>#X&>58999899999899999089999890tisi8;++;8uffffffffghklfq>#  ",
"zzfw>#O&>5999999999999999990999999900q8,*O+*,8qwqqqqqqrifkfq>#  ",
"zxdw<#X*>59999999999999999999999998531:*$..$*;<<<<<>>>3qihfq>#  ",
"zzfq<#X*>799999999999999999999999971-%+oX. XO+#####@##*3rffq<#  ",
"kkfe3&%;28wqeqwqwqeqwqqqqwwwwqwqww83;%+@$@@#@@###@@#@#*3qdsq:#  ",
"ddpe83170tyuyuuuuyyuuuuuuuuuuuuuuyrq72<<<<,<,,,,<><<>138eay7;#  ",
"uyyteeeyusdsddddssdddddddssfdsdsfssuteqqqqqqqeqqqqqqqqeetye3-O  ",
"qqeyasfghjkkkkkkkkkkkkkkkkkkkkkkkkkhhgffffgfffgffgfggfdaye8,*X  ",
"758eusffffffffffffffffffffffffffffffffffgfffffffffffffsye83;%X  ",
">><470qqweqqwqwqqqqqqqwqqqqwqwqqqqqqeqqqqqqqqqqqqqqqqq974,;*@.  ",
"%**-;>>><>>><<<<<<<<<<<<<<<<<<<><<<<<,<<>>>>>>>>>>>>>>>;-*%@+.  ",
"XXX++#######+$#############+########++#################+OXX..   ",
"                                                  .     .       ",
"                                                                "
};
