/* XPM */
static char *_ae3ba2f8eb04178f928be30ac4c10c7cL7nyeWITuvdCIw0[] = {
/* columns rows colors chars-per-pixel */
"12 12 11 1 ",
"  c black",
". c #010000",
"X c #000100",
"o c #000002",
"O c #C96527",
"+ c #CA6726",
"@ c #CA6628",
"# c #CB6729",
"$ c #CA662A",
"% c #CC6628",
"& c #CD6729",
/* pixels */
"            ",
"   @%@@@@@  ",
"  @       + ",
" +  @+@@@  @",
" @ @@@@%@@ @",
" @  @+@%@@ @",
" @ @@@@@@@ @",
" % @@@@@ @ @",
" @ @%@@% @ @",
" @ @@@@+@@ @",
" @  +@@@@% @",
" @ @@@@@@@ +"
};
