/* XPM */
static char *door_bomb1735358953[] = {
/* columns rows colors chars-per-pixel */
"64 64 63 1 ",
"  c #010000",
". c #0C0401",
"X c #130701",
"o c #120900",
"O c #1F0B00",
"+ c #061101",
"@ c #111401",
"# c #240C01",
"$ c #2E0F00",
"% c #231200",
"& c #2B1100",
"* c #231A01",
"= c #351300",
"- c #3A1400",
"; c #361B00",
": c #381A00",
"> c #153301",
", c #1C3501",
"< c #362201",
"1 c #293B01",
"2 c #383E00",
"3 c #431601",
"4 c #461E00",
"5 c #4C1900",
"6 c #551D00",
"7 c #5A1E01",
"8 c #452300",
"9 c #492701",
"0 c #522400",
"q c #5E2301",
"w c #512A00",
"e c #5A2D00",
"r c #5C3000",
"t c #642600",
"y c #652801",
"u c #6E2F01",
"i c #712E01",
"p c #673400",
"a c #6D3100",
"s c #733201",
"d c #7A3700",
"f c #743C00",
"g c #7D3A01",
"h c #235500",
"j c #2E5900",
"k c #355A01",
"l c #3E5D00",
"z c #317601",
"x c #337800",
"c c #3B7A00",
"v c #454300",
"b c #4C4500",
"n c #445F00",
"m c #813C00",
"M c #844400",
"N c #884300",
"B c #8D4800",
"V c #914701",
"C c #924A01",
"Z c #9A4E00",
"A c #378700",
"S c #378800",
"D c #388801",
/* pixels */
"                                                          +>hzAD",
"                                                          +>hzAD",
"         ..................     . ...................     +>hzAA",
"       .XOOO#OOO#OOOOOOOOOOXX  .XOOOO#OO#OOOOOOOOOO..     +>hzAA",
"      .X#$================$#X  o#=================$#X.    +>hzAA",
"      .O&355555555555555553$O..O#355555555555555553=X.    +>hzAA",
"     .X#-5677qqqqqqqqqqq765=O..O-567qqqqqqqqqqqq765-#X... +>hzAA",
"   .XO#=35qqtuuuusiasyuyqq5=O..O=56tyyuuuuiuuuuyq753=#OX. +>hzAA",
"  .X#$=356qtudgmmmmmgmgiy75=O..#=5qtiggmmmgmggdiqq653-$#X.+>hzDD",
"  .O&35566qudNCCCVVCVVNdu75=O..O=5qugNVVVVVCVVNdaq66553$O.+>hzAD",
"..X#-56qqqysMCZCZCCZCZVmiq5=O..O=5qumVZCZVCCZZZmsyqq775-#X@,hzAA",
"OO#=367qtysmNCCCNmmNCCCmiq5=O..O=5qugZCVMMmBBZZmmsyyt753&#*1kzAA",
"==-355qysgmNVCZNmssmNCCgiq5=O..O=5qumVCBgsimNZZNNmgutq653-<2kxDD",
"556566qudNCZCZCmsyysmCCmiq5=O..O=5qimVCmiuusmBZZZVNduq65569vncAA",
"666676qumCZZZZCmsyusmCBmiq5=O..O$5qumCCmstusmVZZZZVmuq6666wbncAA",
"667666qigCZZZZCNmsimBCCmiq5=O..#=5qigVCBmssgNZZZZZVmiq6667wbncAA",
"666666qimVZZZZCCNMmNCCCmuq5=#..O=5qamCCCNmMNCCZZZZVmuq7766wbncDD",
"666666tigVZZZZZCCCCZCZCmuq5=O..O=5qigCZCCCCCCZZZZZVmsq6666wbncAD",
"5555667iMBZZZZZZZZZZZZVmiq5=O..O=5qamCZZZZZZZZZZZZVguq76559vncAA",
"-=-356qigCZZZZZZZZZZZZCmuq5=O..O=5qigCZZZZZZZZZZZZCmuq553-<2kxAA",
"O##=35qumVZZZZZZZZZZZZVmuq5=O..O=5qimCZZZZZZZZZZZZVgaq6-=#*1jxDD",
"..X#=5qimCZZZZZZZZZZZZCmuq5=O..O=5qugCZZZZZZZZZZZZCmat5-#X@,hzDD",
"  .O=5qimVZZZZCCBBNBCCVguq5=#..O=5qigCZCBNBBCZZZZZCmaq5=#.+>hzDA",
"  .#=5qamCZZZZBMfppfMCCguq5=O..O=5qugCCMfppfMVZZZZCguq5=O.+>hzAD",
"  .O=5qamBZZZZBfr88rfBCmaq5=O..O=5qimVBfe98efBZZZZCmiq5=O.+>hzAA",
"  .O=5qimCZZZZBp8%%8pNCgat5=#..O=5qsmCMp8*%8pBZZZZVmaq5=O.+>hzAA",
"  .O=5qugVZZVCge;oo;egNduq5-#XX#-6qygNme;oo;eMVVCZCgiq5=O.+>hzAA",
"  .O=5qumVZBNMs0&oo&0sdstq53=$#$35qyaga0&oo&0amBCCCmaq5=O.+>hzAA",
"  .#=5qumVCBgst4&o.&8qutqq553--3567tyuq8&..&8ysmNCCmuq5=O.+>hzAA",
"  .O=5qumVCmsy0-#..%:07q776655566677qq0-#..%-6ysmCCmiq5=O.+>hzAA",
"  .O=5qumVCmsq5=O..O=566666676666666665=O..O=5tumVVmiq5=O.+>hzAA",
"  .O=5qumVCguq5=O..#-566666667666666665=O..O=5qamVVmi75=O.+>hzAA",
"  .O=5qamCCmiq5=#..O=577666666666666665-O..O=5qimVCmsq5=O.+>hzAA",
"  .O=5qimCCmuq5-O..O=366666677666666765=O..#=5qsgCCguq5=O.+>hzAA",
"  .O=5qamVCmst0:#..#-0qq776655566667qq6-%..%=0tsmCCmuq5=O.+>hzAA",
"  .#=5qimCCNmsq4&..&4yutq7653--3567qyaq4&.X%8ysgNCCgiq5=O.+>hzAA",
"  .O=5qugCCBNMsw&oo&9sgat753=##=357ysgs0=oo&0aMNVZCmuq5=O.+>hzAA",
"  .O=5qimCZCCCgr<Xo:rgNguq5-#XX#-5qudMge:oo;eMCCCZVmuq5=O.+>hzAA",
"  .O=5qamVZZZZNp8*%8pBVgiq5-O..O=5qsmCMp8%%8pNZZZZCgiq5=O.+>hzAA",
"  .O=5qsmVZZZZBfe98rfBVmuq5=O..O=5qamCBfr88rfBZZZZCmuq5=O.+>hzAA",
"  .O=5qimCZZZZCMfppfMCCmsq5=O..O=5qugVCMfppfMCZZZZCgaq5-#.+>hzAA",
"  .#=5qugCZZZZCCBNNBCCCmuq5=O..#=5qumCZBBBMBCCZZZZCmiq5=O.+>hzAA",
"..X#-5qumVZZZZZZZZZZZZCguq5=O..O=5qsmVZZZZZZZZZZZZCgaq5-#X@,hxAA",
"OO#=35qimCZZZZZZZZZZZZCmiq5=O..O=5qumVZZZZZZZZZZZZCmiq53=#*1jzDA",
"==-355qagCZZZZZZZZZZZZCmuq5=#..O=5qumVZZZZZZZZZZZZCgiq653-<2kxDD",
"555567qsmCZZZZZZZZZZZZCgiq5=O..O=5qumVZZZZZZZZZZZZCguq65569vncAD",
"666667qumCZZZZZCZCCCCZCmuq5=O..O=5qumVZCCCCCZZZZZZCmuq6666wbncAA",
"676667qumCZZZZCVBmmNCCCgi75=O..O=5qumVCCNMmNCCZZZZCmiq7666wbncAA",
"667666qagVZZZZZmmssmVCVmuq5=O..O-5qumVCVmssmBVZZZZCgaq7677wbncDD",
"666676qumVZZZZZmsyysmCVmiq5=O..O=5qimCCmsttsmVZZZZCmaq6666wbncDD",
"555666qugMVZZCVmsyysmCCmiq5=#..O=5qumCCmdyusmZZVCCNdyq65559vnxAA",
"==-336qysgmNBZVBmsdmVCCmiq5=O..O=5qigCCNmssmMVZBNmdutq653-<2kcAA",
"OO#=357qtusmNVZBNmmNCCCmiq5=O..O=5qumCCCNmmBBVZBmsutq763=#*1kxDS",
"..X#-5777qysmZZZCCZCCZVgiq5=O..O=5qugCZCZVBZZZVmsuq7765-#X@,hzAA",
"  .O$35567qummBBVCVCCCNduq5=O..O-5qudNCCVVVVVVNguq66553$O.+>hzAA",
"  .X#$-3557yidmmgmmmgmguyq5=O..O=3qysdgmmgmmmmdut7653-&#X.+>hzAA",
"   .XX#=357qyuuuuuiuuuuyqq3-O..O=50qyuuuuuiuuautqq53=#OX. +>hzDA",
"    ..X#-577qqqqqqqqqqqq765-O..#=5777qqqqqqqqqqq775-#X... +>hzAA",
"      .O=355553555555555553$O .O$355555555555555553$O.    +>hzAA",
"      .X#$================&#X. X#$-===============$#X     +>hzAA",
"       .XOOOO#OO#OOOOOOOOOOX.  XXOOOOOOO#OOOOOOOOOOX.     +>hzDA",
"        ...................      ..................       +>hzAA",
"                                                          +>hzAD",
"                                                          +>hzAD"
};
