/* XPM */
static char *door_open1735351364[] = {
/* columns rows colors chars-per-pixel */
"64 64 229 2 ",
"   c #020102",
".  c #0B0403",
"X  c #040805",
"o  c #0C0A04",
"O  c #02030A",
"+  c #0B0509",
"@  c #040B0B",
"#  c #0B0A0A",
"$  c #120503",
"%  c #190704",
"&  c #140A04",
"*  c #1B0C05",
"=  c #11060A",
"-  c #140B09",
";  c #1B0D0A",
":  c #151104",
">  c #1D1206",
",  c #151109",
"<  c #1D130B",
"1  c #1F1808",
"2  c #010312",
"3  c #0F0A10",
"4  c #190D12",
"5  c #1A1011",
"6  c #230C05",
"7  c #260F09",
"8  c #241206",
"9  c #2A1405",
"0  c #201805",
"q  c #23120B",
"w  c #2B140A",
"e  c #2E1A0B",
"r  c #291A08",
"t  c #351506",
"y  c #33160A",
"u  c #341B0C",
"i  c #3C1D0C",
"p  c #341D04",
"a  c #251212",
"s  c #2B1612",
"d  c #291B10",
"f  c #341C13",
"g  c #3B1E12",
"h  c #341916",
"j  c #36220C",
"k  c #3C220D",
"l  c #362414",
"z  c #3B2215",
"x  c #3D221B",
"c  c #431F0D",
"v  c #4C1F08",
"b  c #431E14",
"n  c #44230D",
"m  c #4B240D",
"M  c #45280C",
"N  c #4B290E",
"B  c #51240E",
"V  c #532C0B",
"C  c #442412",
"Z  c #4A2513",
"A  c #472812",
"S  c #4D2914",
"D  c #4F2A1A",
"F  c #45261A",
"G  c #532714",
"H  c #542C15",
"J  c #5C2E15",
"K  c #512718",
"L  c #552C19",
"P  c #5A2C1A",
"I  c #553214",
"U  c #5D3413",
"Y  c #5C311B",
"T  c #543018",
"R  c #6D3C0E",
"E  c #69330E",
"W  c #71330E",
"Q  c #743B0F",
"!  c #7A3A0F",
"~  c #622E13",
"^  c #612F1D",
"/  c #633314",
"(  c #6A3313",
")  c #633914",
"_  c #6D3A14",
"`  c #63341B",
"'  c #6C351B",
"]  c #64391A",
"[  c #6D3A1A",
"{  c #723613",
"}  c #733B15",
"|  c #7B3C14",
" . c #73361A",
".. c #733B1B",
"X. c #7B3C1B",
"o. c #7B361C",
"O. c #4F2821",
"+. c #6B3625",
"@. c #743B23",
"#. c #7C3E24",
"$. c #7D3F28",
"%. c #7E4116",
"&. c #75401C",
"*. c #7D411C",
"=. c #764014",
"-. c #784321",
";. c #823E1C",
":. c #803C16",
">. c #844516",
",. c #8B4313",
"<. c #834917",
"1. c #8C4A17",
"2. c #82421B",
"3. c #8B431B",
"4. c #84491A",
"5. c #8C4A1B",
"6. c #924514",
"7. c #944B14",
"8. c #93451B",
"9. c #954C1C",
"0. c #9A4C1B",
"q. c #9C4F17",
"w. c #955116",
"e. c #9A5016",
"r. c #96511C",
"t. c #9B521C",
"y. c #9E5C1F",
"u. c #A24B1C",
"i. c #A94F1B",
"p. c #AA5116",
"a. c #A4531D",
"s. c #AC521D",
"d. c #A1591E",
"f. c #AD5C1C",
"g. c #A75317",
"h. c #B25C1E",
"j. c #BD5D1C",
"k. c #B25417",
"l. c #AF601E",
"z. c #B3611E",
"x. c #BC611F",
"c. c #844222",
"v. c #8A4523",
"b. c #854921",
"n. c #8C4B23",
"m. c #8B482C",
"M. c #954C22",
"N. c #9B4C23",
"B. c #924A2A",
"V. c #9B4D2A",
"C. c #964623",
"Z. c #945124",
"A. c #9C5223",
"S. c #9D502A",
"D. c #8D4630",
"F. c #9F4E30",
"G. c #A14F23",
"H. c #A34E2A",
"J. c #A35424",
"K. c #AD5523",
"L. c #A65A21",
"P. c #AD5B23",
"I. c #A3542A",
"U. c #AB542D",
"Y. c #A65A2B",
"T. c #AE5B29",
"R. c #B25622",
"E. c #B35B24",
"W. c #BB5C25",
"Q. c #B4552B",
"!. c #B35C2A",
"~. c #BC5D2B",
"^. c #A14D33",
"/. c #AA5430",
"(. c #A85436",
"). c #BA5E31",
"_. c #B65D34",
"`. c #AF6028",
"'. c #B56422",
"]. c #BA6323",
"[. c #B3612A",
"{. c #BD622A",
"}. c #BC6827",
"|. c #BE6432",
" X c #C35C1A",
".X c #CB5D1C",
"XX c #C6651E",
"oX c #CB651B",
"OX c #CB6A1E",
"+X c #C76B1E",
"@X c #D2661C",
"#X c #D2681D",
"$X c #DC691C",
"%X c #D96619",
"&X c #E06B1C",
"*X c #C35D25",
"=X c #CB5F25",
"-X c #C15E29",
";X c #C35D35",
":X c #C46425",
">X c #CB6524",
",X c #C66923",
"<X c #CC6A24",
"1X c #C4652C",
"2X c #CB662B",
"3X c #C36929",
"4X c #CD6A2A",
"5X c #D36525",
"6X c #D86624",
"7X c #D36A25",
"8X c #DC6B25",
"9X c #D3662B",
"0X c #D26A2B",
"qX c #DC6B2B",
"wX c #DA672C",
"eX c #CE7229",
"rX c #CE7126",
"tX c #D37126",
"yX c #D5732A",
"uX c #DC722A",
"iX c #DB7125",
"pX c #C36532",
"aX c #CB6632",
"sX c #CD6A31",
"dX c #C76830",
"fX c #D26731",
"gX c #D46A32",
"hX c #DB6C32",
"jX c #E17125",
/* pixels */
"                    X       X   X       X                                     O O O O O O O     O                   X           ",
"                        X     X               . .                           O   O O   O O   O O               X   X             ",
"                  X   X X   X X X O . . o . $ $ $ $ $ o o o . o . . o . . . . . + + + + . O . . + . o . .   .   X X             ",
"                    X     X X o , , q 7 w w 9 9 9 9 9 8 8 8 1 1 8 8 8 8 q w q q a q a q q q q a q q w 6 > o o                   ",
".   .                     X o , q f C Z Z Z Z v B m N N M M M A M C n n C C Z Z A Z Z Z Z C C Z Z Z A l e q $ .                 ",
"          .               X & r c K ` @.o... .{ {  .} } =.Q _ =.} _ } [  ._ _ } } } } }  ...........[ Y Z u * o           O     ",
".   .     .   .           o 8 g ~ @.v.C.N.N.N.N.q.0.9.w.w.w.w.w.9.9.9.9.9.9.9.0.t.0.q.t.9.0.A.A.A.Z.B.-.` F 9 &           O O O ",
"  .   . .   .           X o r F ' v.H.Q.Q.Q.!.Q.!.h.f.z.l.l.z.z.P.P.L.f.P.f.f.h.h.h.h.h.h.W.E.!.[.`.Y.n.&.L u % . .   O     O   ",
"O       .       . . . o : 0 z P o.v.H.Q.Q.Q.!.R.!.P.E.f.z.'.z.f.!.P.K.K.f.K.h.f.E.h.h.z.h.h.E.E.[.[.Y.Z.-.Y C y * $ . . O O O O ",
". . .     .     . o ; r r j G ` @.;.C.C.H.N.C.0.9.9.w.w.w.w.w.7.1.9.5.9.1.w.w.7.w.e.e.e.q.t.t.J.A.Z.n.b.-.] G m u w 6 = + O   O ",
"O + O           . % y n I ` [ [  .o.o. . .+.' ( [ [ R R R =.R _ _ [ _ ) R ) ) =.=.Q } ! ! | | } &.&...&.....[ ( J Z u < .     O ",
"O O O O O O O O . q C ~ } 2.2.| ^ J B c b b b b c n v n n M n n n g n n n k k M j M m m m B m m A A S I / &.2.2.X.' Z q = O   O ",
"2 2 2 2 2 O O O - e I ..8.N.5.:.P Z t 6 ; * ; q q q w q 8 8 8 w q q q q q q q q 1 0 9 9 8 8 8 8 < > r i H ..5.r.M.*.Y f 5 O O O ",
"2 2 2 2 O O . . 8 k / 2.V.S.C.X.D u & . o . $ & - - & & * * * * * & & ; , , , , : : & = $ o .   . . o r A ] n.S.A.4.' Z w - + O ",
"2 2 2 2 # - < r i S [ *.n.M.#./ i 7 $   . $ * q w r r 9 9 9 9 t 9 9 9 e r r w q r q & .               * f I &.b.n.2.[ H n y w 9 ",
"O 2 + 3 4 s l F P ` [ =.X.../ m y % . . $ 6 h h C Z Z Z B v v v B B V G G D D D x f q - .             = w C / ..*.&.' / J G Z Z ",
"O 2 2 4 a F J [ =...@.+.U S k y - $ . $ 7 h K ' [ ..|  .Q Q ! ! :.:.:.:.;.c.$.@.+.O.h 4 +     O       + ; w z F P ` ' ......| | ",
"O O + 4 h T ..n.5.b...J M p 8 & $ . $ % h K  .c.V.N.G.u.0.u.u.u.p.i.i.Q.U./.^.^.D.@.O.h ;           O X + ; q s g D ( X.5.M.t.a.",
"O O . q C ' n.J.L.r.} N r : X X O o % y v ' v.H.W.~.1X*Xj.j. X X.X.X.X=X=X;X;X;X(.D.+.O.s $ . O       O O   + = a b ` >.t.E.:X>X",
"    . q C ..A.!.E.u.} M 1 o X   . % 9 c ^ ;.u.W.3X>X>XoX.X.XoX%X%X%X&XwXhXhXgXaX_.^.$.P C w ; # +       O O O O 4 g ` 3.f.:X#X8X",
"  O . q Z ..J.~.~.G...C > o . o > p M / X.9.L.{.2X4X7X7XoXOX#X#X6X8X8XqXhXhXgXfX;X/.B.@.P A h s ; # .         O = f / 3.f.,X7XjX",
"  O # q Z X.N.~.~.G...m > $ $ 8 p N R =.8.A.!.1X2X7X0X<X>X7X7X6X6X6XwXqXhXhXgXfXpX_.I.n.*.[ D z s ; $           ; f U 5.P.1XhXuX",
"    . w Z ..A.W.W.N. .n 8 $ 6 p V =.1.y.f.h.].:X>X<X7X<X>X<X5X>X9XwXwXwXwXfX9X2X{.{.!.P.A.n...J b 9 $ .         & i / 5.T.3XyXyX",
"    o w Z ..N.W.W.0.{ m 9 * r k ) <.y.z.].,X:XXX:X,X,XXXXXXX,X<X>X2X2X9X2X>X:X,X,X:X:X{.[.J.n.} m 9 $   O       & u / 5.P.:XtXiX",
"    o 6 m } G.Q.W.N. .c q * 9 N =.r.z.+X<X,X<XOX,X,X>XXX,X,X,X,X2X2X2X2X2X2X2X>X,X<X<X<X,X[.A.X.G t % .         , j U 1.L.}.4XyX",
"    o 9 Z } N.E.!.N. .v w % 9 N =.r.x.rXeXeX<X,X>X>X,X,X>X,X,X1X2X2XdX2X2X3X>X>X,X<X0X0X4X{.I.2.J t %         X & j ) 1.f.}.<XtX",
"    $ 9 m } A.E.!.9.} C 7 ; t Z X.A.}.eX0X0X4X>X,X,X>X>X1X2X1X2X2XdX2X2X2X4X,X>X<X4XyXyX4X3XI.;.G t % .         : j U <.L.}.rXeX",
"    $ 9 S } r.`.[.9...n w ; w K X.J.{.0X0XfX4X2X2X2X2X2X2X2X2XaXdX2X2X2X2X>X<X<X<X0X0X7X4X{.A.2.J t %           : k U <.y.'.3XrX",
"    $ 9 Z } A.`.`.r._ C q ; w b o.G.-X9XfXfX4X2X4X2X2X2X2X2X2X2XaX2X2X2X>X2X>X2X1X2X<X4X2X}.A.%.G t %         . , j U <.y.'.,XrX",
"    $ 9 m ..r.`.T.r.} z 5 ; y b o.V.Q.9XfX9X0X0XaX4X4X2XaX9X9X2X2X2X2X1X1X*X-X-X~.1X1X2X3X[.Z.%.H t & .         : j U <.d.'.,X+X",
"    $ 9 Z } A.`.`.r.[ C a ; w Z o.H.~.9XwXfX9X2X4X2X2X2X2X2X9X2X2X2X2X:XW.P.J.G.A.J.!.].}.[.N.X.L t %         X : j U <.d.z.+XOX",
"    $ 9 m ..N.T.T.9.[ C q ; w Z o.V.~.9XfXfX9X>X2X4X4X>X5X>X5X5X9X9X2XW.K.0.<.%.<.5.A.T.W.[.A.;.H y %   O       , l U <.d.x.OXOX",
"    . 8 Z ' M.T.!.M.[ b a ; y Z o.G.W.9XwX0X0X<X4X<X7XOXoX#X5X5X5X5X=XW.u.2.) I I ) *.A.'.[.J.;.P y . O       O & u ~ ,.g.j.oX%X",
"    o 8 M ..M.T.T.M.' C a ; w Z | A.-XwX7X0X4X<X<X<XOXoXoXoX@X@X6X5X=XR.9. .I k M V &.r.E.[.S.;.H y $   O   O O - k ~ ,.g.j.oX%X",
"    . 8 Z { M.T.P.M. .C 7 ; 9 Z | N.:X>X0X0X<X<X>X,XOXOXoX@XoX@X6X5X=XR.8.( M p j M [ 8.s.E.A.2.L y - O O     O - i / ,.p. XoX%X",
"    . 8 C [ M.K.!.8. .b q ; w S X.A.].<X7XtX7X>X<X<X+XoXoXoX@X#X5X6X=XQ.8._ N j j S [ 7.E.E.J.%.L e $ O     O   ; i / ,.k. X%X%X",
"    . > C [ 0.R.K.8.{ C q ; 9 N | A.].<X7X7XeX<XOX,XOXXX>X>XOX7X6X9X=X~.0.2.` S V ) *.J.W.W.A.>.G e o O     O O % i E 6.k.oX%X%X",
"    . > n } 0.R.R.0.{ c q & r Z } t.].OXtX<X<XOX:X,X3X,X3X3X2X>X9XfXfX-XR.9.2...} 2.Z.f.j.W.t.X.H y = O O       * i E 6.k. X%X&X",
"    . > C  .0.Q.Q.6.{ n q * r N =.r.].+X<XrX7X>X,X1X1X1XpXpXpXsXaX9X=X=XW.R.i.N.0.a.E.j.XXx.a.%.S e = O         * i E 6.h.oX%X&X",
"  O + > C { 0.k.h.0.{ c 8 % 9 M } y.}.OXrXeX<X<X:X1X3XpX|.pXpXpXaXaX9X9X=X=X-XW.W.*X:XoXoXx.t.%.I r & X         * i E 6.h.OX$X&X",
"O   . 1 C _ 0.R.h.6.{ c 7 * 9 m =.r.].+XrXrX<X,X4X1X1XpXpXpXpXpXaXaXfX9X2X9X>X:X5X>X6X5X>X].t.| D e & O O     . 6 i ( 1.h.>X8XiX",
"    # q C { 0.R.E.8.{ v q * 9 N =.r.'.+XrX<X<X<X,X3X1XdXpXpXpXpX2X2X2X9XwXwXwX6XwXwXqX7X>X3XJ.:.H u &         . > k ( 5.E.:X7XjX",
"    . < C  .0.R.R.0.{ c q * r m =.Z.'.OXeX4X4X5X2X4X2X1X3XdXdX2X1X2X9X9XwX6X8XqXqXjXqXqX2X{.V.;.H u &         X > k ) 5.T.1X0XuX",
"    . q C ' C.K.Q.8.{ c q % 9 Z _ r.'.<X7X4X4X0X4X2X2X1X1X1X1X,X>X>X>X5X6X6X6XwXhXhXhXhXfXpXH.c.H u &     O   @ > z ` 5.Y.{.sXhX",
"    + w Z [ 9.R.T.8. .b q * 9 Z ..r.W.,X0X0X4X0X4X2X4X>X>X>X>X>X>X5X=X5X5X5X6XwX6XwXgXgXaX).V.;.P y %         @ 1 l ] n.Y.{.sXgX",
"  O . q C  .0.K.R.8. .c q ; e A } M.{.>X4X0XsX0X9X4X5X2X>X>XoX>X>X>X5X>X>X=X*X:X:X~.).pX)./.B.@.G y $ .       @ 5 l Y b.Y.{.aXgX",
"    + q Z ' 9.K.R.9.( b q ; 9 Z X.Z.{.>X0XgXfX0X4X9X>X0X>X5X>X>X5X5X>X>X*XW.K.L.I.J.I.I.V.B.#.^ b 7 $ .     @ @ 5 l Y b.I.{.aXfX",
"    . q M { 7.K.R.8.[ c 7 ; 9 Z ..N.~.2XsXfX0XgX7X9X9X>X5X5X7X5X6X5X>X:XR.a.7.3.2.X.;.;.;.@.^ Z i 6 $       @ @ , l ` 4.I.~.aX0X",
"O   . w m { 9.f.f.7.R k 8 & 9 A ..V.~.1XsXfXwX4X2X4X0XwX5X5X6XwXwXwX2X1XT.B.-.U I H L L K K c c 7 % .         @ , z ` ;.K.~.=XfX",
"  O + q M Q 7.f.l.7.R M > * r A [ V.W.dXdXfXsX2X2X2X>X>X5X5X6X9XgXgXaX_.A.-.I M u e t y y y t 6 * $ .       O . 5 f ` C.K.-X9X9X",
"  O $ w M Q w.f.f.7.R k > ; w Z @.V.~.dXsXsXgX1X2X:X:X:X=X*X:X:XaXaX_./.b.+.z r & o $ & % % % $ $ .     O   O X , g ` ;.K.*X=XwX",
"  O . w m Q w.l.l.7.R k > - 9 Z ..V.).2XgXgXfXdX2X*XW.W.R.s.R.Q.!.T.I.m.-.D d , X .   . . $ . .       O     O . q g ( ;.s.*X=X9X",
"    o w M _ w.h.f.w.R n q & r Z ..G.-X4XsXhXgXdX1X~.s.u.8.;.8.3.v.v.c.@.Y x < X X           .         O       . 6 b W ;.Q.*X=X6X",
"    # q M } r.l.l.7._ k > ; r Z } G.*X5XhXhXhXdXpXQ.H.;.o.{ ~ ~ ^ ` P D z d , X O                 O   O   O O . % b W u.s.=X6XwX",
"    . 0 M &.r.P.P.r._ n 1 * 8 M } J. X<XeXgXgXpX_.I.v.' G c y t f g f d q , o X         X O O X O O O O O     . 6 b W ;.R.=X6X6X",
"    # 8 A [ r.E.T.9._ n q & 9 m _ 9.j.,X2XsXaX{.Y.B. .L c 6 * % % ; , - X o .         X @ @ O O O O O O O   O   % b W ;.R.=X6X8X",
"    o 8 A } 9.E.E.9...C 1 & 9 k W >.g.h.j.~._./.D.c.^ C 7 .                         X X X O X 2 O O O O O     . 6 c E 6.E.>XwX8X",
"    o 8 M ..9.E.E.9._ z > = > p V W >.6.0.9.M.v.$.' Z s ; .                       . O X X O 2 @ 2 O O O O     . 6 c ( 6.h.:XwXjX",
"    o 8 m _ 0.R.K.9._ C 1 o & 9 i V E W W _ ' ` P Z u q . O                           + O @ O O O O O O       . % c E 1.P.,X7XiX",
"    $ 8 m { 6.s.s.9._ n < # o & 8 e c v M Z C C g f 5 ; .                   .   O . . O O 2 O @ O O O   O     . 6 t ( 3.P.,X0XuX",
"    $ 6 m W 6.s.s.7._ n q @ # o $ ; 9 9 9 q q 9 q ; - #   O                 . . . .   O O @ O O O O O O       . * k ) 1.P.3XyXyX",
"    $ 9 v W 6.p.s.6._ M 1 @ X   . . $ $ $ $ = $ . . +                 .   . . . .   + O 2 O 2 O O O O         . * k ) 1.P.}.yXyX",
"    $ 9 v W 6.p.i.6.R M 1 X X           . O         O     O   O         . . . . . . + + 3 O 2 O O             . * k ) 1.'.}.eXyX",
"  . $ 6 v W 6.p.i.7._ M 1 #   O           O           O O   O         .   . . . . . + 2 + 2 O O O O .         . * n ) <.`.3XeXyX"
};
