/* XPM */
static char *e520879d363e480a8b75a36faf4cbcdeOHlZBpAeX0zZkfO3[] = {
/* columns rows colors chars-per-pixel */
"12 12 13 1 ",
"  c black",
". c #010000",
"X c #000100",
"o c #010101",
"O c #000002",
"+ c #010002",
"@ c #C96527",
"# c #CA6726",
"$ c #CB6827",
"% c #CA6628",
"& c #CB6729",
"* c #CA662A",
"= c #CC6628",
/* pixels */
"            ",
"   %%$%%=%  ",
"  %       # ",
" %  %=%%   %",
" % %#%=%%  %",
" % %%%%%#  %",
" % %%%% %  %",
" % %%%%%#  =",
" % =%%%%=  %",
" % %%%%    %",
" % %#      %",
" %         %"
};
