/* XPM */
static char *door_closed1735351364[] = {
/* columns rows colors chars-per-pixel */
"64 64 234 2 ",
"   c #020202",
".  c #0C0503",
"X  c #0C0904",
"o  c #03020A",
"O  c #0B050A",
"+  c #0B090B",
"@  c #070904",
"#  c #120604",
"$  c #150B05",
"%  c #1B0C04",
"&  c #150C0A",
"*  c #1C0E0A",
"=  c #10070A",
"-  c #1D1206",
";  c #15100B",
":  c #1C130B",
">  c #1F190D",
",  c #010011",
"<  c #0E0E11",
"1  c #141110",
"2  c #1C1410",
"3  c #1B1811",
"4  c #180F10",
"5  c #230E05",
"6  c #220E0A",
"7  c #280F08",
"8  c #241206",
"9  c #2A1306",
"0  c #23130B",
"q  c #2A140A",
"w  c #26180F",
"e  c #2D1A0C",
"r  c #2F1902",
"t  c #321506",
"y  c #3A1D06",
"u  c #32150A",
"i  c #341B0C",
"p  c #3C1C0B",
"a  c #381905",
"s  c #221312",
"d  c #2C1510",
"f  c #2D1B12",
"g  c #331C11",
"h  c #3A1D11",
"j  c #3E210E",
"k  c #34200E",
"l  c #2F2212",
"z  c #312212",
"x  c #3E2112",
"c  c #3F2518",
"v  c #431F0C",
"b  c #441F05",
"n  c #4D2206",
"m  c #44230D",
"M  c #4B230D",
"N  c #47290F",
"B  c #54240C",
"V  c #522A0D",
"C  c #5D2B0E",
"Z  c #52300D",
"A  c #442312",
"S  c #4B2412",
"D  c #452912",
"F  c #4C2914",
"G  c #422619",
"H  c #4B281A",
"J  c #452818",
"K  c #522615",
"L  c #542C13",
"P  c #5B2E14",
"I  c #542C1A",
"U  c #5A2C19",
"Y  c #563214",
"T  c #5B3113",
"R  c #553419",
"E  c #5C311A",
"W  c #652E0E",
"Q  c #6B2C0D",
"!  c #69320D",
"~  c #74360D",
"^  c #74380D",
"/  c #642E11",
"(  c #622E18",
")  c #633414",
"_  c #6B3613",
"`  c #663914",
"'  c #6D3A15",
"]  c #65351B",
"[  c #6D361B",
"{  c #66391A",
"}  c #6D3A1A",
"|  c #733614",
" . c #733B15",
".. c #7C3B14",
"X. c #72361A",
"o. c #733C1B",
"O. c #7A3C1A",
"+. c #793512",
"@. c #593320",
"#. c #6C3A20",
"$. c #743D21",
"%. c #7E4316",
"&. c #7D431A",
"*. c #734111",
"=. c #7C4224",
"-. c #7E4921",
";. c #734222",
":. c #833C16",
">. c #863F1A",
",. c #863E0C",
"<. c #844215",
"1. c #8D4315",
"2. c #8C4A16",
"3. c #83441B",
"4. c #8B441B",
"5. c #84481C",
"6. c #8D4A1B",
"7. c #9A4716",
"8. c #954A15",
"9. c #9B4914",
"0. c #9B4719",
"q. c #944D1B",
"w. c #9A4B1C",
"e. c #964517",
"r. c #8F501B",
"t. c #94521E",
"y. c #9C521D",
"u. c #975216",
"i. c #8F430E",
"p. c #A24D1C",
"a. c #A34D16",
"s. c #AD5316",
"d. c #A5541D",
"f. c #AB541C",
"g. c #A45A1D",
"h. c #AD5A1E",
"j. c #AF5A17",
"k. c #B25215",
"l. c #B3551B",
"z. c #B25B1C",
"x. c #BD5C1D",
"c. c #B9561B",
"v. c #B4611E",
"b. c #834523",
"n. c #8C4521",
"m. c #854826",
"M. c #8D4C22",
"N. c #8D4A28",
"B. c #944C23",
"V. c #9A4B23",
"C. c #954A28",
"Z. c #945125",
"A. c #9B5324",
"S. c #9E5825",
"D. c #94522A",
"F. c #9B552A",
"G. c #93522B",
"H. c #A34E22",
"J. c #A35422",
"K. c #AA5423",
"L. c #A45925",
"P. c #AC5A24",
"I. c #A45629",
"U. c #AD562B",
"Y. c #A3592A",
"T. c #AA5B2B",
"R. c #B35623",
"E. c #B35A23",
"W. c #BC5E23",
"Q. c #B1562A",
"!. c #B45D2B",
"~. c #BB5D2A",
"^. c #B85724",
"/. c #AD5731",
"(. c #AA5D31",
"). c #A25931",
"_. c #AA602F",
"`. c #B66425",
"'. c #BC6223",
"]. c #BC6820",
"[. c #B4632B",
"{. c #BC622B",
"}. c #BD6B2E",
"|. c #B36233",
" X c #BD6532",
".X c #BB6A33",
"XX c #B06138",
"oX c #C45E1C",
"OX c #CB5F1E",
"+X c #C6621E",
"@X c #CC641E",
"#X c #CF681C",
"$X c #C3691F",
"%X c #D3651C",
"&X c #D9661D",
"*X c #D5681B",
"=X c #DA691D",
"-X c #C35D22",
";X c #CB5F25",
":X c #C35D2B",
">X c #CB5E2B",
",X c #D05F24",
"<X c #CE5F31",
"1X c #C46525",
"2X c #CB6524",
"3X c #C56924",
"4X c #CC6A25",
"5X c #C5652B",
"6X c #CC652B",
"7X c #C56A2B",
"8X c #CC6A2B",
"9X c #D26523",
"0X c #D96622",
"qX c #D36A24",
"wX c #DB6A23",
"eX c #D2652C",
"rX c #DA652A",
"tX c #D36A2C",
"yX c #DB6B2D",
"uX c #C7702D",
"iX c #D6712A",
"pX c #C46632",
"aX c #CC6431",
"sX c #C56931",
"dX c #CC6A32",
"fX c #D26533",
"gX c #D46D31",
"hX c #DB6B31",
"jX c #D56638",
"kX c #CE7231",
"lX c #D37230",
"zX c #E36B2C",
"xX c #E17429",
"cX c #E06D34",
/* pixels */
", , , , o o @   O @ .   o o     o o     o                                                                   @   @     @   .   . ",
", , , o o o   @ .       o O o o o       o                                                               @     @ @ @   @ .     . ",
", , , , o o   @   @     o o o o o O . . @ O @ X . X . . # . # . . .   . . . . . . # . # . . . . X X @ @ @ @ @ @   @       . .   ",
", , , o o @     @       o o O = & & 0 0 0 : > 0 8 0 0 8 0 9 5 8 8 8 8 8 8 0 8 - 0 0 7 7 7 9 7 q 0 0 0 : ; X @ @             .   ",
"o o o o o     @           o + * s i A A D D D D D m S M S M n M S A S m m m A A S S A v S S S S m A j j e : X                   ",
"o o o o o             o     & q D K ) ' ` } { { } } } | | +.+. .| | | [ } o.o.} [ [ X.X.X.|  . . . .' C N e - X                 ",
"                          @ 0 h T  .5.q.t.Z.Z.M.M.Z.q.w.w.0.w.w.0.V.w.V.V.C.C.C.C.C.C.V.0.V.w.w.w.y.2.%.T D 0 X                 ",
"                      @ o & e J ' 3.A.P.P.P.T.L.Y.P.P.R.l.^.^.^.R.R.R.Q.Q.Q./.Q.U./.Q.U.R.R.R.Q.E.z.g.6.*.Y e $                 ",
"  o             o   @ X & 0 m T o.n.L.P.P.P.L.Y.T.U.U.Q.Q.^.^.R.R.^.Q.Q.U.U.U././.U.U.U.K.R.l.R.^.E.g.q.&.E m e ; # @           ",
"                @ X - e z x F ) *.5.6.t.t.Z.M.M.6.M.M.B.q.q.0.w.0.w.w.w.V.C.C.C.C.C.B.C.V.V.0.V.w.w.q.4.&.' V m i 8 % $ @       ",
"                  - r m P ` } o.*.*.} } } } ' ' { { ] [ X.X.X.X.X.| X.| X.} } [ [ ( [ [ X.X._ | ' o. . . . .' _ T N a - . .     ",
"O @   o         @ 8 m ! ..4.5.<.' T F D c c x x x x A A A G G A A x v m p m j j A A A v v v A A D D V L `  .<.1.<._ V q $       ",
"O O O o o   o o ; i L :.9.d.8.,.) F g 2 3 : - : : 0 s s s s s s : 0 > - : 8 0 : 6 0 0 8 0 0 0 0 * 6 q j L  .2.y.9.<.) p * . o o ",
"O O O , o O @ + > x ` 1.a.f.w...L z 4 + @ X X $ $ & ; 1 1 1 2 1 & $ $ - % $ $ % $ $ % % % % $ X @ @ $ w D } 6.J.d.8._ B u * # o ",
"O , O = = * 0 e v K ' <.8.w.<.) m w O o @ $ 5 8 9 9 w d w w w 0 e 8 9 9 9 9 9 9 q 9 t q q 0 8 $ O @ @ & k Y ..q.8.4. .P m p t q ",
"  o O = * d A F U `  ...,...Q S r $   @ $ 5 u x M S F H H H D J D D D N N N m N A S F F S G i 0 + O   X 8 m W ^ %... ._ ( P L K ",
"o o O & d S ( O.:.O.o._ / C v u % .   . 7 v B Q +.+.O.O.o. .o.;.;.*.*.*. . . .O.+. .O.O.o.} L j 0 #   @ # 0 p F P _ _ ..&.&.3.3.",
"    O 6 h U O.B.w.B.O./ b a 7 & . . . % u K +.e.p.p.J.H.V.A.V.A.Z.Z.r.Z.t.t.A.A.F.F.A.F.A.N.;.E h * . @   # 8 9 j L _ &.6.S.L.P.",
"    O 0 A X.B.Q.R.V.O.B t % .     . # 7 M | e.f.-X;X1X;X1X1X~.`.`.`.`.`.`.'.{.1X{.{.{.{.[.T.N.o.K i % .     . . 0 A ` 5.L.`.7X8X",
"  o . 0 S O.H.^.^.H.O.S 7 #     # * 9 v / :.p.-X%X9X9X4X2X2X4X3X4X3X7X4X4X4X2X6XeXeXdXgX5X XI.6.] S 9 % #     O & z ) 4.E.3XqXiX",
"o o O s S $.K.:XW.H.O.S 5 . . . 5 i M ) :.V.R.:XrXtXtXqXiX4X4X8X4X4XkX8X8XtXeXrXtXtXyXlXgXpX!.A.=.] F i 0 $ o   $ i ) 2.z.4XiXxX",
"o o + s H o.A.~.^.d. .M 5 # % 8 y P O.4.V.I.~.6XeXgXyXyXqXtXtXtXkXdXdXgXdXgXtXtXrXtXtXgXtXaX[.U.D.n.o.E v q % . $ a W i.z.2XwXxX",
"o o + 2 D ;.y.E.!.y.| M 8 # 5 p C &.C.K.!.[.{.6XeXtXtX6X4XeX6XeXdXdXdXdXjXaXeX9XrXeXhXyXeXeXpX X!.I.B.=.U v 0 # % p W i.f.+X*X=X",
"o o O s D } y.P.P.q.~ M 8 $ q h ' m.U.~.5XsXaX6X5X7X4X4X2X4X7X2XaXpXdXdXaXeX9X9X9X,XeXrXrXeXjXaXaX{.T.D.$.F e * 5 p C <.f.1X#X=X",
"o o O 2 J } t.P.E.B. .D 8 % 7 A [ n.L.`.{.7XpXpXsX7X5X2X2X2X1X5XdXpXsXaXaX6X6X9X,X0X,X<XrXrXrXyXgXdX5XL.b.L i * % a W <.s.oX#X*X",
"o o + s A o.q.E.P.q.' m 7 % 7 i P o.B.L.P.!.{.5X7X5X5X2X2X1X2X4X6XsXsX8X8X6X6X9X0X,X9XeXfXeXfXyXlXdX7XY.b.P i : % p C <.f.x.%XqX",
"o   O 0 A ' q.E.h.q.| m 0 = & w p L } &.B.J.E.1X5X5X4X2X2X2X1X2X8X7X8XuX4X4X2X9X%X,X,XeXeXeXeXgXlXtX7XT.6.E i * 5 i P >.d.oX2XqX",
"    . 0 M  .w.l.h.9. .S 0 = @ = 0 i A L } 4.J.`.1X5X5X2X+X+X2X3X3X8XuX4X8X4X@X%X@XOX;X1X>X6X8XdXiX8X7XL.5.L i - * u / >.d.1X9XyX",
"    . 7 n +.8.z.h.9. .S s O     O * q p P O.V.E.1X5X4X2X+X2X3X2X$X#X4X4X4X4X#X#X@XOX2X;X;X6X5X8X4X4X`.L.3.Y i % 6 i U 4.K.W.eXtX",
"    . 9 M ~ 9.c.z.8. .S s O o     . 5 p L o.w.E.5X4X4X@X@X+X+X4XuXuX4XuX4X4X@X@X2X+X;X2X6X1X2X4XqX4X'.g.%.Y e % * i U 3.K.1XqXtX",
"    . 7 v ~ 9.c.l.w. .M 0 + o O O * u v / :.V.!.2X4X4X2X+X@X4X3X#XuX4X4X3X4X@X4X%X2X1X2X1X2X4XqX4X@X'.g.%.Y i : 6 i E 4.J.1X4XtX",
"    . 7 n +.7.k.l.0. .M 2 + + < s g A U O.6.K.W.1X2XeX2X@X4X4X+X4X#X3X3X4X4X@X4X@X2X2X9X6X9X4XqXqX4X1Xg.%.V i : : i U 3.J.~.4XtX",
"    O d M +.9.k.c.9._ S s < 4 d h U $.>.B.I.Q.1X6X2X4X9X4X#X4XqX4X4X6XeX6X6X1X2X2XqX9X9X9XrXwX*XqX4X].g.%.Y k - 8 k T <.g.v.%XqX",
"o   . 7 v +.7.k.R.9._ A s < 4 g I $.n.H.U.~.:X5X6X4X4X4X#X4X2X2XtX4X>XeXeX2X6X4X4XqX4X9X9X9X9X*X8X4X].g.5.Y k - 8 k T <.d.v.4X4X",
"  o . 7 S | 0.c.c.0.[ M s 1 s G #.N.U.~.:XaX6X7X4X5X4X4X4X2X4X2X4X6X<XeXeX6X6X6X5X2X2X2X2X+X2X4X4X4X].g.<.R k - 8 y C 5.f.x.@X4X",
"o   O 7 M | 0.l.R.e.X.A s 1 w H X.C.:X6XeXfX6X4X8X4X4X#X4XqXqX2XeXeX<X<XfX6X6XeX1X1XoXx.c.c.c.+X$X4Xv.g.5.T i 0 - k T <.g.v.2X4X",
"    O 6 m | 0.l.l.8.[ S 0 ; f I >.H.<X<XyXgXeX7X5X7X2X4X4X2X2X6X<X<X>X<XaXaX6XeX1X^.f.d.7.e.0.g.v.v.'.f.%.T i : 0 p ) 3.d.W.2XqX",
"  o . 6 M [ 8.R.K.q.' A s ; e F $.H.>X,XtXyX6X7X8X8X1X4X4X4X4X2X6XfXaX<XaXaX6X6X'.K.q.<.| | O.4.y.`.W.g.5.Y i : - p U 5.K.1X4XtX",
"    o 0 D ' q.h.P.u.' A 0 ; e K ..H.;X0XqXqX6X4X7X4X3X3X3X4X4X5X6X6XaXaXaXfX5X5X`.f.:.] K M P | 2.g.E.g.%.Y k 6 * i U 4.K.5XtXyX",
"    . 0 j ' q.h.h.r.` j 0 $ q S +.p.oX%XqXtXtX4X5X1X3X1X4X1X4X5X5XpX5XaXdX8X6X2X^.w._ K i u v P <.y.E.L.%.Y i * * h E n.U.5XgXhX",
"    . - m } u.L.P.r.` m 0 $ 9 B ..a.oX9XqXqX9X8X1X4X1X1X$X2X7X1X6XpXpXpXdXtX4X1Xz.q.] v 0 * q V ..Z.P.g.5.U u 6 6 h ( n.^.>XyXzX",
"    . > m ' u.P.P.r.` m 0 ; 9 K O.a.oX9XtXqX4X5X7X1X3X1X1X3X5X5X6XpXpXpXdX8X4X1Xz.2.T p 5 # 7 S O.V.P.J.b.U h * * h ( n.R.>XtXyX",
"    . 8 m ' 6._.P.6.' A s & q S | p.oX2XtXqX9X5X2X3X1X4X4X3X2X4X5XsXpXaXdX4X4X+Xj.2.W a % . 6 S o.Z.Y.L.b.E h 5 6 p / >.l.2XrXyX",
"    @ - j ' r.g.K.M.` h 2 & 0 S o.w.1X2XtXqX4X5X1X2X1X1X1X2X4X5X8X5XpXpX4X4X4X$Xj.2.) y 5 = 6 G ;.D.(.Y.b.E h 6 7 p Q >.l.OX=XxX",
"    X - N *.r.L.P.M.` A s < d S o.w.-X6X4XqX2X5X5X2X2X4X2X2X5X2X5X5X8XaX4X4X4X$Xj.2.! m 8 % d K =.D.XXF.=.@.h 5 5 y Q 1.l.OX&XwX",
"    X 8 j *.r.L.U.M.{ G s = d S o.w.oX6XeX9X2X5X6X2X2X2X4X2X4X6X5X8XsXsXdX4X4X4Xz.u.| n t q h U =.F.XXY.m.#.h 7 5 v W 1.k.;X*XwX",
"    X 8 N } Z.Y.T.M.#.h s = d S O.H.-X2XtXrXeX5X6X2X4X6X2X4X6XtX6X5XaX5X8X4X4X3Xv.w.%.C B A K [ m.).|.Y.b.U h 7 7 b W 1.k.+XqXwX",
"    X 8 N ' Z.T.U.m.#.A s & q S O.H.1XrXtXyXtX8X6X6XtX4X9X4X4X6X2X6XsX6X6XtX4X5X1XJ.M.O.] E #.=.D.(.|.Y.m.( u 5 5 a ) 1.f.@XqXwX",
"    # q S $.D.T._.M.} c 3 & q K :.H.:X0XzXrXfXfXtX8XtX6XtX4XqX2X6X6X2X6XeX6X6X6X:XQ.I.N.m.=.m.D.U.[.{.T.3.P p % 5 a ) 4.f.1X4XiX",
"    # q S o.D.T._.G.} c 2 $ q K ..p.-X9XrXyXgXeX6XgX8XtX8X4X4X2X6X9X>XeX6XeX6XeXaX~./.).D.D.).(.[.{.`.K.4.U i % 5 a U 5.P.'.4XlX",
"    # q S $.D._._.M.#.G 0 % 9 S +.e.R.;X9XeXeXeXeXdXtX8X8X4X4X5X6X9X2X>X;XeXeX>X6X<X XXXXXXX|..XpX5X1XJ.<.P i - - i T 5.L.{.kXiX",
"    # 0 S o.A.U._.Z.} J 0 % 9 p Q >.p.R.:X;X5XeX8XgXtXdX8X8X4X4X6X2XeX>X,X,X>XeX>X6XpXpXpXpXpX8XgX4X1Xf.<.C e - - i R &.L.{.kXkX",
"    # 8 S o.B.E.P.t.' m 0 % % 9 n W :.e.d.E.W.3X8X8XuXuX7X7XsX8X6X;X;X;X,X,X9X9X6X6XdXdXdXsXdXtXrX4XoXs.<.P k $ > z R -.L.[.uXkX",
"  . # 0 m | 8.l.R.w._ M q % % % t M C _ :.w.h.1X4X4XuXuX}.sX.XsX6X6X2X;X,X,X9X9XeX9X4XtXtXtXtXqX0X%X+Xs.<.C k - ; l R -.S.}.7XkX",
"    . 8 M ~ 8.k.s.9.~ n 9 # . X $ 8 y n ` <.u.v.3X3XuX}..X.X.XsX5X6X>X9XOX&X%X%X*X*XqXqX9XrX&X&X9X&XoXs.4.C k : > l R -.L.[.7XuX",
"    . 8 m ~ i.k.k.9.+.b t %   @ @ X 8 k V *.u.v.].7X}.}..X.X.X.X5X:X;X;XOX%X#X%X*X*X*X&X&X&X&X&X0X&XoXs.<.P k > 3 l R -.S.[.7XuX",
"    X 8 n ! 9.s.k.9.^ n q $ .     $ 8 a Z *.u.v.$X}.}.}..X.X.X|.5X:X6X;X@X,X%X#X#X*X*X*X&X&X&X&X&X%XoXs.<.Y z 2 3 l R -.S.`.3X7X",
"    X 8 m ~ 9.l.k.9.~ M q $ . X * q j V ` 5.y.E.$X3X7X}.`.}.}.}.5X5X6X6X2X%X@X#X%X%X*X*X%X%X&X&X0X%XoXs.<.E g s 3 l R -.A.`.3X4X",
"    X 8 m ^ 8.z.c.8. .M q # % % u S ( | <.A.P.W.3X3X7X7X7X}.7X5X5X5X6X6X6X9X2X9X9X%X%X%X%X%X&X*X0X%XoXd.3.P f 2 > f R &.J.'.3X4X",
"    X 8 N ' w.E.E.y. .m q % % i B X.>.p.J.E.W.1X5X4X5X4X1X5X5X4X5X6XeX6XeX6XeX2X9X2X2XOX%XOX%X%X9X9X1XK.3.P f 4 2 f T 3.g.v.1X4X",
"    O 0 J o.A.[.[.A.o.J 0 $ 7 A Q >.Q.:X:X6X<XpXaX6X6X2X2X2X2X4X6X8XdXaXaXfX6XeX6X6X2X2X+X@X#X#X9X9X1XK.>.U f 4 : f P &.f.W.+X9X",
"    O 0 J &.A.[.[.S.} G s % 7 H +.H.:X,XrXfXaXaXaXaX6X9X9X2X%X2X8X8X6XdXdXdXaXaXeX>X6X2X@XoX2X#XqX9X:XI.b.U g 4 4 h L <.a.x.2X%X",
"  o = 0 J ;.S.|.[.D.} G s = u I :.Q.eXzXzXhXjXjXjX>X>X9X#X2X9X2XeX6XsXdXdXdXaXfX6X6X6X+X+X+X1X2XqX2X'.K.b.I f 4 * g P :.a.x.@X&X",
"o   O d J ;.F.|.[.A.$.G s * u K >.Q.hXzXzXcXjXjXaX6X>X9X9X%X9XtXeX8XdXaXjXdXaXaXfX6X;X2X+X+X@X2XtX5X'.U.b.U f * 4 g L :.f.oX2X%X"
};
