/* XPM */
static char *_780e87512524217839c0a3a25eafabcZ2gLLGMb7PGEizUd[] = {
/* columns rows colors chars-per-pixel */
"12 12 13 1 ",
"  c black",
". c #000100",
"X c #010101",
"o c #000002",
"O c #271403",
"+ c #281300",
"@ c #2A1301",
"# c #291400",
"$ c #291401",
"% c #2A1400",
"& c #291403",
"* c #2B1402",
"= c #2A1502",
/* pixels */
"       $$   ",
" $$$$+ $$ $$",
" $$$$$ $$ $$",
"          $$",
" $$ $$$++ $$",
" $$ $$$$$ $+",
" $O         ",
" $$ $$ +$$$+",
" $$ $$ $$$$+",
"    $$      ",
"$$$ $$ $$ +$",
"$$$ $+ $$ $$"
};
