/* XPM */
static char *player_bomb1735358115[] = {
/* columns rows colors chars-per-pixel */
"64 64 166 2 ",
"   c #378700",
".  c #3A8700",
"X  c #378800",
"o  c #3A8903",
"O  c #3D8C1F",
"+  c #418606",
"@  c #4C860B",
"#  c #428D0C",
"$  c #468709",
"%  c #50860E",
"&  c #558610",
"*  c #518A12",
"=  c #489013",
"-  c #4E931C",
";  c #51921B",
":  c #66861A",
">  c #68851B",
",  c #408E20",
"<  c #469021",
"1  c #519621",
"2  c #539823",
"3  c #559A3B",
"4  c #798424",
"5  c #778524",
"6  c #67942B",
"7  c #69922A",
"8  c #66A33C",
"9  c #68A23C",
"0  c #47965F",
"q  c #509A5F",
"w  c #5DA15E",
"e  c #79AE54",
"r  c #74AD5F",
"t  c #499660",
"y  c #479561",
"u  c #589F74",
"i  c #5FA373",
"p  c #7FB373",
"a  c #74AC60",
"s  c #82852A",
"d  c #828B30",
"f  c #938E3D",
"g  c #83963D",
"h  c #A5843D",
"j  c #919445",
"k  c #B48446",
"l  c #B48E50",
"z  c #BE8953",
"x  c #BE935E",
"c  c #83A34C",
"v  c #82AE59",
"b  c #82B45F",
"n  c #92AF63",
"m  c #84B561",
"M  c #92B468",
"N  c #84B674",
"B  c #92BD74",
"V  c #B3A166",
"C  c #B3B37B",
"Z  c #D08156",
"A  c #C08953",
"S  c #CF946A",
"D  c #E68262",
"F  c #EA8568",
"G  c #FE816F",
"H  c #F2876F",
"J  c #E68F72",
"K  c #FF8270",
"L  c #FD8F7E",
"P  c #F68C76",
"I  c #E89176",
"U  c #53A19E",
"Y  c #60A79F",
"T  c #77B39D",
"R  c #5EA6AC",
"E  c #6AACAB",
"W  c #5EABDF",
"Q  c #6FB0C4",
"!  c #71B2C3",
"~  c #71B4DF",
"^  c #61AADF",
"/  c #62ADE3",
"(  c #69B1EB",
")  c #73B6E3",
"_  c #64AFFE",
"`  c #64B0FE",
"'  c #6CB5FF",
"]  c #6EB4F2",
"[  c #71B6FD",
"{  c #77BAFF",
"}  c #7ABCFF",
"|  c #8CBE9B",
" . c #90BF9F",
".. c #E39F82",
"X. c #FF9182",
"o. c #FF9F8F",
"O. c #FF9F91",
"+. c #D0B38C",
"@. c #E7AB91",
"#. c #F7AB9B",
"$. c #EFB09E",
"%. c #F0B29D",
"&. c #FEB0A5",
"*. c #FFBBB2",
"=. c #A5C98B",
"-. c #BFC899",
";. c #B4C993",
":. c #B2D19D",
">. c #91C0A0",
",. c #A9CDA8",
"<. c #B4D2A0",
"1. c #BFD2A6",
"2. c #BED8AB",
"3. c #B6D4AB",
"4. c #D0D1AF",
"5. c #C0D7AB",
"6. c #EFC5B5",
"7. c #E6C8B0",
"8. c #E3D1B9",
"9. c #82BDDB",
"0. c #96C5C3",
"q. c #92C4DF",
"w. c #BBD8C3",
"e. c #BBDADC",
"r. c #9CCAEB",
"t. c #88C3FF",
"y. c #87C2FE",
"u. c #9DCDFF",
"i. c #96C9F8",
"p. c #B4D8EB",
"a. c #A1CFFF",
"s. c #A8D2FF",
"d. c #B9DBFF",
"f. c #FFCEC7",
"g. c #FFCFCA",
"h. c #F6D0C5",
"j. c #FFD1CA",
"k. c #FFD6D0",
"l. c #D0E3C3",
"z. c #D3E7DE",
"x. c #E6E2CF",
"c. c #E9E2D0",
"v. c #E3EFDB",
"b. c #E6E3D0",
"n. c #FFE2DE",
"m. c #E5F0DF",
"M. c #C4DFF8",
"N. c #D5E8E3",
"B. c #C6E1FF",
"V. c #CBE5FE",
"C. c #DBECFE",
"Z. c #E9EFE1",
"A. c #FEEEEB",
"S. c #E6F1E1",
"D. c #ECF1E3",
"F. c #EDF6EB",
"G. c #F6F1E8",
"H. c #FFF0ED",
"J. c #F0F0E4",
"K. c #ECF4FF",
"L. c #E9F3F4",
"P. c #FFF3F2",
"I. c #F6F8F4",
"U. c #FFFAF7",
"Y. c #F4F9FF",
"T. c #FFFFFF",
/* pixels */
"                                  X 2 b :.v.T.T.T.T.T.T.T.T.T.T.T.T.T.T.T.T.T.T.T.T.m.<.b 2                                     ",
"                X               X X 2 b <.S.T.T.T.T.T.T.T.T.T.T.T.T.T.T.T.T.T.T.T.T.m.:.b 2                                     ",
"                        X X o # o - 8 B 2.D.T.T.T.T.T.T.T.T.T.T.T.T.T.T.T.T.T.T.T.T.D.2.B 8 = = # o                             ",
"                          X # 2 e e B <.l.F.T.T.T.T.T.T.T.T.T.T.T.T.T.T.T.T.T.T.T.T.F.l.:.B e 9 2 #                             ",
"                            = 8 m =.2.l.v.I.T.T.T.T.T.T.T.T.T.T.T.T.T.T.T.T.T.T.T.T.I.m.l.2.=.m 8 =                             ",
"                            ; e =.l.D.F.I.U.T.T.T.T.T.U.T.T.T.T.T.T.T.T.T.T.T.T.T.T.U.I.F.D.l.=.e -                             ",
"                            2 m <.m.U.P.P.P.A.G.D.m.m.J.G.A.A.A.H.H.A.G.J.m.Z.D.G.A.P.P.U.T.m.:.m 1                             ",
"                            1 m <.m.U.A.A.j.h.8.4.5.5.4.8.h.g.g.j.g.h.7.4.1.5.4.8.h.k.n.A.U.m.<.b 2                             ",
"                            1 m <.S.P.A.f.*.$.+.C M M C +.%.&.&.&.&.$.+.C M M C +.$.*.f.n.P.S.<.b 2                             ",
"                            1 m <.m.P.j.*.o.I x j 6 6 j x I X.X.X.X.I x j 6 6 j x I #.*.k.H.S.<.b 2                             ",
"                            1 b <.S.H.g.&.X.D k s @ % s k D G G K K D k s % % s k D L &.j.H.m.<.b -                             ",
"                            1 m :.m.H.j.&.L D k s % % s k D K K K K D k s % % s k D L &.j.H.m.<.b 2                             ",
"                            1 m <.m.H.j.&.X.D k s % % s k D K K K K D k s % * s k D X.&.g.A.m.<.b 1                             ",
"                            1 b <.m.H.j.&.X.D k s % % s k D G K K K D k s % @ s k D L &.j.A.S.<.b 1                             ",
"                          X 1 m <.S.P.k.*.#.I x j 6 6 j x I X.X.X.X.I x j 6 6 j A I #.*.k.P.S.<.b 1                             ",
"                          X 1 b <.S.P.k.f.*.$.+.C M M C +.%.&.&.&.&.$.+.C M M C +.&.*.f.n.P.m.:.b 1                             ",
"                            1 m <.S.U.A.n.k.h.8.4.5.5.4.6.h.j.j.j.j.h.8.4.1.1.4.8.h.k.n.A.U.S.<.b 1                             ",
"                            1 m :.S.T.U.P.P.A.G.D.Z.m.m.G.A.H.H.A.A.A.G.D.Z.D.J.G.A.P.I.U.T.v.<.b 1                             ",
"                            - e =.l.S.F.I.U.T.T.T.T.T.T.T.T.T.T.T.T.T.T.T.T.T.T.T.T.T.I.G.S.l.=.e -                             ",
"            X               = 8 m =.2.l.m.I.T.T.T.T.T.T.T.T.T.T.T.T.T.T.T.T.U.T.T.T.I.m.l.2.=.m 8 =                             ",
"                            # 2 8 e B :.l.F.T.T.T.T.T.T.T.T.T.T.T.T.T.T.T.T.T.T.T.T.F.l.:.B e 8 2 #                             ",
"                          X o # # ; 8 B 2.D.T.T.T.U.T.T.T.T.T.T.T.T.T.T.T.T.T.T.T.T.D.5.B 8 - = # o                             ",
"                o               o o ; e =.l.S.F.L.K.K.K.K.K.K.K.K.K.K.K.K.K.K.L.F.S.l.=.e - X X                                 ",
"                                X X $ w m =.3.w.e.M.B.B.B.B.B.B.M.B.B.B.B.B.M.e.w.3.=.m 8 = X X                                 ",
"                                X X # 2 8 e N  .0.r.a.a.a.u.a.u.a.u.u.u.a.u.r.0.| N e 8 - # X X   X X     X                     ",
"                                X X o # = - 3 i E ) { { { { { { { } { { { } ) E i 3 - = # o X X                                 ",
"                            o o = - 2 2 2 2 3 i R / ` ` ` ` ` ` _ ` ` ` ` ` / R i 3 2 2 2 2 - = # o                             ",
"                          o = 2 8 e m m m r p T ! ( ` ` ` ` ` ` _ _ ` _ ` ` ( Q T p b m m m e 8 2 #           X                 ",
"                    X X     = 8 m =.:.<.<.<.,.0.q.( ` ` ` ` ` ` ` ` ` ` ` ` ] 9.0.,.<.<.:.<.=.m e #                             ",
"                    X X     1 e =.l.D.m.m.m.N.p.i.' ` ` ` ` ` ` ` ` ` ` ` ` [ i.p.N.S.S.S.m.l.=.e =     X X                     ",
"                    o # = - 8 B 2.D.T.Y.Y.K.C.d.i.{ ` ` ` ` ` ` _ ` ` ` ` ` { i.d.C.K.Y.Y.T.D.2.B 8 - = # o                     ",
"                    # 2 8 e B :.l.F.Y.K.C.V.d.a.t.' ` ` ` ` ` ` ` ` ` ` ` ` [ t.a.d.V.C.K.Y.F.l.:.B e 8 2 #                 X   ",
"                X   = 8 m =.5.l.v.I.Y.C.B.s.u.t.{ ' _ ` ` ` ` ` ` ` ` ` ` ` ' { t.u.s.B.C.Y.I.v.l.2.=.m 9 =                     ",
"                    - e =.l.D.F.I.T.K.V.s.t.{ ' ' ` _ ` ` ` ` ` ` ` ` ` ` ` ` ' ' { y.s.V.K.T.I.F.D.l.=.e ;                     ",
"            . + @ @ 7 n -.c.H.P.U.U.K.B.u.{ ` ` ` ` ` ` ` ` ` ` ` ` ` ` ` ` ` ` ` ` } u.B.K.T.U.P.P.c.-.n 7 @ $ +               ",
"            + & > 4 j V +.6.k.n.A.T.K.B.u.{ ` ` ` ` ` ` ` ` ` ` ` ` ` ` ` ` ` ` ` _ { u.B.K.U.A.A.j.6.+.V f 4 > & +             ",
"            $ > s h z S ..#.*.f.n.P.K.B.a.{ ` ` ` ` ` ` ` ` ` ` ` ` ` ` ` ` ` ` ` ` } u.M.K.P.n.f.*.#...S A h s > $             ",
"            % 4 h Z F H P L o.*.j.P.K.B.a.{ ` ` ` ` ` ` ` ` ` ` ` ` ` ` ` ` ` ` _ _ { u.M.K.P.k.*.o.L P H F Z h 4 @             ",
"            % s k D G G G G L #.6.b.N.p.r.{ ` ` ` ` ` ` ` ` ` ` ` ` ` ` ` ` ` ` ` ` [ i.p.N.x.6.#.L K K K K D k s *             ",
".       X   @ s k D K G K K P ..+.-.,.0.~ ] ` _ ` ` ` ` ` ` _ _ ` ` ` ` ` ` ` ` ` ` ] 9.0.,.-.+...H K K K K D k s %             ",
"            % s k D K K K K H S V n p T Q ( _ _ ` ` ` ` ` ` ` ` ` ` ` ` ` ` ` ` ` ` ( Q T p n V S H K K K K D k s %   .         ",
"            % s k D K K K K F A f 6 3 u R / _ ` ` ` _ ` ` ` ` ` ` ` ` ` ` _ ` ` ` ` / R i 3 6 f z F K K K K D k s %             ",
"            % 4 h Z D D D D Z h 5 % O t U / ` ` ` ` ` ` ` ` ` ` ` ` ` ` ` ` ` ` _ _ W U 0 O % 4 h Z D D D D Z h 4 @             ",
"            $ > s h k k k k h s : # , t U W ` ` ` ` ` ` ` ` ` ` ` ` ` ` _ ` ` ` ` ` W U 0 O @ > s h k k k k h s > $             ",
"            + & > 5 s s s s 4 > & + O t U ^ ` ` _ _ ` _ ` ` ` ` ` ` ` ` ` ` ` ` ` ` W U 0 O + & > 4 s s s s 4 > & +             ",
"            . + $ @ % % % * @ $ + . O t U ^ ` ` _ _ ` ` ` ` ` ` ` ` ` ` ` ` ` ` ` ` W U 0 O . + $ @ % % % % @ $ + .             ",
"                                    , q Y ~ } } { { { [ ' ` ` ` ` ` ` ' [ { { { } } ~ E 0 , X                                   ",
"                                    < w T q.u.u.u.u.u.t.} [ ` ` ` ` ' { t.u.u.u.u.u.q.T q - X   X               .               ",
"                                    - a  .p.B.B.B.M.d.a.y.' ` ` _ _ [ t.a.d.M.M.B.B.e.| a <                                     ",
"                                    1 a ,.z.K.K.K.K.C.d.i.[ ` ` _ _ { i.d.C.K.K.K.K.N.,.r -                                     ",
"                                    2 m :.v.T.T.T.T.K.M.r.) W W / W ) r.M.K.T.T.T.T.m.<.b 2                                     ",
"                                    - b :.v.T.T.T.U.L.e.0.E U U U U E 0.e.L.T.T.T.T.m.<.m ;                                     ",
"                                    2 b <.m.T.T.T.T.F.w.| i 0 0 0 0 i | w.Z.T.T.T.T.m.:.b 2                                     ",
"                                    2 b <.m.T.T.T.T.S.3.N 3 O O O O 3 N 1.m.T.T.T.T.S.<.m ;                                     ",
"                                    2 v ;.c.A.A.H.A.c.;.v 2         - v ;.c.H.H.H.A.b.;.v -   X                                 ",
"                                    ; c C 7.g.g.j.j.7.C c ;         ; c =.7.j.j.j.j.7.C c ;                                     ",
"                                    * g V @.&.&.&.&.@.V g *         * g V @.&.&.&.&.@.V g *                                     ",
"                                    * d l J X.X.X.X.J l d *         * d l J X.X.X.X.J l d *                                     ",
"                                    @ s k D K K G G D k s *         % s k D K K K K D k s %                                     ",
"                                  . * s k D K K G K D k s %         % s k D K G G K D k s %                                     ",
"                                    % s k D K K K K D k s @         % s k D K K K K D k s %                                     ",
"                                    % s k D K K K K D k s %         % s k D K K K K D k s %                                     ",
"                                    @ s k D G K K G D k s %         % s k D G K K G D k s %                                     ",
"                                    % s k D K K K G D k s %         @ s k D K K K K D k s %                                     "
};
