/* XPM */
static char *player11735351364[] = {
/* columns rows colors chars-per-pixel */
"64 64 217 2 ",
"   c #030202",
".  c #0B0401",
"X  c #0D0803",
"o  c #03030A",
"O  c #0A0609",
"+  c #0C0B0A",
"@  c #070802",
"#  c #120601",
"$  c #1A0601",
"%  c #140A03",
"&  c #1B0C02",
"*  c #130D0A",
"=  c #1A0E0A",
"-  c #1D1104",
";  c #15110B",
":  c #1D130A",
">  c #1A140A",
",  c #090A15",
"<  c #141414",
"1  c #1C1412",
"2  c #1D1D1D",
"3  c #181819",
"4  c #110F12",
"5  c #230E01",
"6  c #2A0D01",
"7  c #230A03",
"8  c #241304",
"9  c #2B1402",
"0  c #23140A",
"q  c #2B1609",
"w  c #241A0D",
"e  c #2B1A0B",
"r  c #2B1804",
"t  c #311502",
"y  c #311903",
"u  c #331B0B",
"i  c #231B13",
"p  c #2A1E14",
"a  c #231E1B",
"s  c #271B15",
"d  c #321E12",
"f  c #321F19",
"g  c #2E200E",
"h  c #2C2113",
"j  c #2D251C",
"k  c #24211A",
"l  c #3A2414",
"z  c #33251C",
"x  c #34281B",
"c  c #3B2C1D",
"v  c #372416",
"b  c #1E1E22",
"n  c #241E22",
"m  c #1F212D",
"M  c #252524",
"N  c #292523",
"B  c #2B2926",
"V  c #272928",
"C  c #2A2B2A",
"Z  c #232429",
"A  c #342C24",
"S  c #3B2D23",
"D  c #322C29",
"F  c #342825",
"G  c #3D3124",
"H  c #36312D",
"J  c #3C342C",
"K  c #2A2B31",
"L  c #343434",
"P  c #3C3934",
"I  c #3C3B3A",
"U  c #373636",
"Y  c #303132",
"T  c #402C1E",
"R  c #412417",
"E  c #442F20",
"W  c #443224",
"Q  c #42352C",
"!  c #4A3629",
"~  c #43392C",
"^  c #4D392E",
"/  c #4A3D32",
"(  c #453C36",
")  c #52382B",
"_  c #4D413C",
"`  c #484139",
"'  c #524A3C",
"]  c #5C4A3C",
"[  c #534337",
"{  c #444343",
"}  c #4C4D4C",
"|  c #484746",
" . c #534B43",
".. c #5B4C42",
"X. c #524D4C",
"o. c #4E504F",
"O. c #5A5145",
"+. c #5C544A",
"@. c #54524C",
"#. c #4A4C53",
"$. c #4F5153",
"%. c #545453",
"&. c #5B5554",
"*. c #5D5C5C",
"=. c #595856",
"-. c #614C41",
";. c #64564B",
":. c #6A594D",
">. c #655649",
",. c #645B53",
"<. c #625C59",
"1. c #6C5D55",
"2. c #5E605F",
"3. c #65625D",
"4. c #6A655C",
"5. c #6C665A",
"6. c #74665C",
"7. c #5E5F62",
"8. c #636363",
"9. c #6C6C6B",
"0. c #6C6866",
"q. c #746B63",
"w. c #756A65",
"e. c #7C746B",
"r. c #777168",
"t. c #737574",
"y. c #7D7D7C",
"u. c #7A7775",
"i. c #6E7074",
"p. c #84756C",
"a. c #87796E",
"s. c #837C74",
"d. c #887D76",
"f. c #7F817D",
"g. c #84827D",
"h. c #8B847B",
"j. c #8D8077",
"k. c #92877E",
"l. c #7D7E83",
"z. c #7F8180",
"x. c #838483",
"c. c #8B8984",
"v. c #8C8C8B",
"b. c #878787",
"n. c #948A83",
"m. c #998C83",
"M. c #928F8C",
"N. c #93918E",
"B. c #9B938C",
"V. c #909086",
"C. c #939493",
"Z. c #999593",
"A. c #9C9994",
"S. c #9A9B9B",
"D. c #969799",
"F. c #A49D98",
"G. c #A2958F",
"H. c #A4A19D",
"J. c #AAA49E",
"K. c #B0A69F",
"L. c #9E9FA1",
"P. c #A3A4A5",
"I. c #ACA9A4",
"U. c #ACACAB",
"Y. c #A9A5A4",
"T. c #B2ACA5",
"R. c #B1AEA9",
"E. c #ADB0AE",
"W. c #BBB3AC",
"Q. c #B3B2AC",
"!. c #ADAEB1",
"~. c #B3B5B4",
"^. c #BAB7B2",
"/. c #BDB9B4",
"(. c #BBBCBB",
"). c #B6B8B8",
"_. c #ACB0B1",
"`. c #C1BAB4",
"'. c #C3BEBB",
"]. c #C0B7B0",
"[. c #BEC0BE",
"{. c #C3C1BE",
"}. c #C8C1BB",
"|. c #BFC1C1",
" X c #C4C5C4",
".X c #CBC9C6",
"XX c #CACBCB",
"oX c #C7C7C5",
"OX c #D1CEC9",
"+X c #CED0CF",
"@X c #D5D1CD",
"#X c #D3D4D3",
"$X c #DAD7D4",
"%X c #DDD9D6",
"&X c #DDDDDC",
"*X c #D6D8D8",
"=X c #CDCED0",
"-X c #E0DDDA",
";X c #DEE0DF",
":X c #E2E1DE",
">X c #DEDEE0",
",X c #DFE1E0",
"<X c #E3E4E3",
"1X c #E9E6E4",
"2X c #E6E8E7",
"3X c #EAE9E6",
"4X c #ECECEB",
"5X c #E6E8E8",
"6X c #EEF0EE",
"7X c #F1F1EE",
"8X c #EFF1F0",
"9X c #F4F4F4",
"0X c #F6F8F7",
"qX c #F7F9F8",
"wX c #FEFEFE",
"eX c #F7F8F8",
"rX c #EEEFF0",
/* pixels */
"                o                       o                                 . . # - % - - > > > * X o       o                     ",
"                  o           o       o                                   . % & - - 8 w 8 w > * + o o o o                   @ @ ",
"                      o           o . o .   .   . O X + * 4 4 * + + * * ; i i p h g g g w > > + + o o         .   .   . @ @   @ ",
"          . @ @   @           o . o O   .   . . . * 1 a C C D K C C C D H H ~ ~ J J x h g > > # X O   o   .   . . . . . . . X @ ",
"          @ @ X X X X @ @ @ X X @ X X X .     . * i D ( } =.*.*.=.&.%.&.<.3.5.4.2.' ' G h - > # X . O o . . . . . # # # # # % X ",
"        @ X X & - % & % % % X * * + * X . . . X & N | <.u.b.v.M.v.b.b.b.v.N.Z.B.k.e.;.` x 0 & # . . . . . . # $ $ $ % % % % & & ",
"        @ # & & - - - - & > > - > > ; > # . X & i Q <.g.P.).|.|.|.(.).).{. X X(.R.B.e.' G 0 $ # . . . . # # $ $ & & & 5 & & - - ",
"        # % - 8 r 8 8 8 - - - > > > > > % & % 8 z ' w.A.(.*X<X5X5X<X<X<X2X3X<X%XoXJ.j.>.G w % # # . # # # $ $ 7 5 5 5 8 9 5 8 8 ",
"      . X & 8 8 r 9 r 8 8 - 8 > > > w w w w g x / ;.g.H.|.*X5X8X9XeXeX0X0X8X4X;X XH.g.O.G r & # # . # # $ $ 7 5 6 9 6 8 9 9 8 9 ",
"      . # $ 8 9 r r r 9 r 8 8 r - g w h x G ` ' +.6.g.Z.U.[.+X,XrXeXwXqX8X5X*X|.P.V.6.' x r % X # # # # $ & 7 5 6 6 9 9 9 9 9 9 ",
"    . . % $ 8 8 9 r 9 r r 8 8 8 8 8 g x ~ ' 5.r.u.g.f.f.z.C.P.|.*X8XqX9X,XXX_.C.f.4. .J h 8 & # . . . # # $ & q 9 q 6 t 9 9 9 9 ",
"    . . % & 5 9 9 r 9 9 8 g 8 8 - r g c ' 5.h.V.F.V.f.9.2.8.u.S.|.,X8X5X+X_.b.8.o.I A h w 8 % # # . . # % & 7 6 q t t 9 t 9 9 9 ",
". . . . # $ 7 8 9 9 8 9 r r 8 - 8 8 g ~ ;.d.H./.^.H.g.*.| { %.z.E.#X5X;X[.C.0.{ B k > > - - & X # . . . * & 7 9 q t y 9 9 t 9 t ",
".   . . # $ 7 0 8 8 8 8 8 8 8 - 5 8 g ! 5.m.^..XXX~.v.2.I L } t.Y.+X5X*X(.v.2.U k < > > - - & & . . . . # & 0 0 q r r t t 9 t 9 ",
"  . . . # % & & & 5 5 8 5 5 & & $ & e / 5.B.{.&X>XXXS.t.$.} *.z._.+X5X&X|.S.i.| L M 1 > - - % # .   . . # & 7 q q t 9 9 t 9 9 t ",
"o o . . . O % % % $ & $ & & % $ # % w ~ 5.A. X5X4X&X(.C.u.i.z.L.[.&X4X<X+X_.v.i.=.` J j g % X @ @ .   . X = = 7 q q r t 9 t 9 9 ",
"  o o o . O . # . # # # $ # . . . . > H 3.Z.oX3XqX4X*X(.Y.L.Y.(.+X2X8X6X,XXX).S.x.9.@.J h % .         . X * & 5 q q r 9 9 9 9 9 ",
"o o o o o o O O O . . # . . .       ; D *.v.{.<X0XqX4X&X#XXX+X&X2X8X9X8X8X2X*XXX~.N.q.| N > .         o % * = 0 8 9 9 8 8 9 9 5 ",
"o o o o o . o   . . . . . .         + V %.x.Q.*X7XqX0X0X6X4X8X9X0XqXqXwXwXwX0X4X@XE.g.+.A ; .           X % & 0 8 9 9 9 9 8 9 5 ",
"o o o o o o o . . . . @ . . .       O k | t.S.{.%X4X7XqXwXwXwXwXwXwXwXwXwXwXwXwX2X[.M.<.H :         o @ X * = 7 9 0 8 9 9 6 9 9 ",
"o o o o     @ # # . # X . . .       X 2 P *.g.H./.@X:X9XwXwXwXwXwXwXwXwXwXwXwXwX7XoXZ.3.P > @       o . X % & 0 q 9 q r 9 8 9 9 ",
"  o o @ o X % * % % % # # # .         < B ` *.u.B.R..X:XqXwXwXwXwXwXwXwXwXwXwXwX7X.XA.4.~ > X       o @ % * = 0 8 r 9 9 9 9 9 9 ",
"  o   @ @ X % & & & - & & # X @     @ + 3 B ~ O.q.k.I.@X4XwXwXwXwXwXwXwXwXwXwXwX6X XB.4.P w #         @ X & = 0 q r r r 9 9 9 9 ",
"@   @ @ X % - - 8 - 8 8 - % & @       @ * > a G ' 6.V.W.$X7XqXwXwXwXqXwXwXwXwX0X;X(.V.3.J i % @     @ @ * * 0 9 q u r 9 t t 9 r ",
"  @   @ # % - 8 r 9 8 8 - & & X @   @   @ # $ w G O.p.F.[.#X:X2X<X<X<X<X<X4X2X&XoXI.g.&.J g % @ . @ O . % ; 7 q 6 q q t t 9 t 6 ",
"@   @ @ @ & 8 8 9 r r 9 8 8 - & # @ . @   . # & p ~ ,.u.D.U.).(.).).).~.).(.)._.L.c.0.' A > & @ .   . X % % 7 8 q q t q 9 9 t t ",
"      @ # - 8 9 9 t r r 9 8 8 & $ .       . O $ 7 z ( +.9.u.g.x.x.z.f.z.x.z.z.z.t.3.@.J h - & # . . X . # % 5 8 6 t t t t t 6 t ",
"      @ X & - 9 y y y y r r 8 = # . . . . . # # 7 w j P ` | } $.$.o.o.o.$.o.o.o.| I G z h > % % . . . . # & 7 8 6 6 6 6 6 6 9 6 ",
"      @ # & - 9 t y y y y r 8 - % . . . # # 7 7 0 0 i n N M V V V V V V V V V V V k k w 0 & % $ # . . . # $ $ 5 5 6 6 9 9 6 9 9 ",
"      @ % % 8 9 y t y y y r 8 7 % # . . * = q s f f f a a 2 2 2 2 2 2 2 2 2 b 2 2 1 : : - & % $ . . . . # $ $ 7 5 6 5 8 5 5 5 6 ",
"        X % - 9 9 q y y u q 5 & % . . * 1 f Q ( ( { / I U L L L L L L Y Y Y L L C B j w - & $ @ .   . . . # $ & 7 & & & & 5 7 5 ",
"        X & - 8 r r e e q 9 = $ .     * N ( &.w.e.e.e.0.<.7.*.*.2.2.2.2.2.2.2.2.%.{ P N > & . .           . . % $ $ & & $ $ $ % ",
"    o o O # = 0 0 0 0 q 0 0 & .     o < J &.f.V.F.I.Y.F.D.C.C.C.C.N.C.C.D.D.C.v.f.9.@.P k %               o   . # . # # X # # # ",
"o     o O * * 1 i 0 0 0 0 7 * .     @ b { 9.V.[.OX#X@X.X.X X XXXoX|. X XXXXXXX|.E.V.9.| k ;         o o o o . o . @ . @ @ @ @ @ ",
"  o o o O * = = 1 0 0 1 : ; = % X O 3 K %.f.I.XX-X4X4X7X4X4X4X4X6X4X4X4X8X8X8X5X#XU.f.o.C ; @ @ o , , , , O O O o   . @   . .   ",
"o   o O O * = = 1 0 0 0 = 0 1 i i n C #.8.x.I.[.-X3X9X0XqXwXwXwXwXwXwXwXwXwXwX0X;X).c.%.C ; @ , b m m K m b 4 4 . .       @   @ ",
"    o   O $ = 0 7 0 0 7 0 0 p F P | &.8.f.z.L.[.}.@X;X6XwXwXwXwXwXwXwXwXwXwXwXwX5X[.b.%.V < < b K #.#.#.#.U n = # . . . X @ X . ",
"  o   o O * 7 0 q 6 7 7 8 e S ( <.9.l.v.V.k.h.V.A.T.}.;X7XwXwXwXwXwXwXwXwXwXwXwX5X[.b.$.V < b L #.l.l.l.i.#.F s $ # # $ # & # & ",
"    o o # $ 7 t q 6 6 6 9 u ! :.d.Z.U.U.A.f.f.5.q.g.J.}.3XwXwXwXwXwXwXwXwXwXwXwX2X).z.o.V 3 V #.i.D.!.L.b.0._ f 7 & $ $ 5 & - & ",
"      . % & 7 6 t t 6 6 9 d [ w.G.`.XX XI.h.+.' ' 5.k.[.&XqXwXwXwXwXwXwXwXwXwXwX<X).x.o.V 2 C %.l._.|.(.F.p.-.f 6 7 $ 7 5 5 5 8 ",
"      . # & q 6 t 6 6 6 6 l ] p.Y.OX:X-XW.h.+.J ~ O.g.T.$X0XwXwXwXwXwXwXwXwXwXqX<X).x.X.C a D &.b.R.oX`.G.p.-.R 6 7 7 7 6 6 6 6 ",
"      . X & 7 6 9 6 6 6 9 l -.d.W.-X4X-X^.j.O.c c ' e.K.$X9XwXwXwXwXwXwXwXwXwXwX<X).b.O.F a A X.u.F.T.I.m.p.[ R t 6 6 6 6 t 6 t ",
"  o   . % $ 5 9 9 6 5 5 9 c ] d.].-X9X1X}.h.O.c c [ p.K.$X0XwXwXwXwXwXwXwXwXwXwX<X(.n.&.S s z ( ,.p.n.b.p.-.) d t 6 6 6 6 6 t t ",
"      @ X * 7 0 9 8 5 5 0 v ..d.W.-X7X1X/.k.-.E T [ p.K.$X0XwXwXwXwXwXwXwXwXwXqX1X`.n.:.W d d S / +.1.,.-.) T u t 6 6 6 t t t 6 ",
"    o . % * & 0 0 7 & & 0 z  .s.T.$X1X&XW.j.-.E E -.a.T.$X9XwXwXwXwXwXwXwXwXwXwX<X'.m.1.) u q q z S Q J S v d u 9 6 9 6 t t 9 t ",
"  o . O O % = & = = & & - z _ e.F.}.#X.XK.p.] E E -.a.T.$X9XwXwXqX9X8X8XqXwXwX0X<X'.m.6.) u 5 7 0 i i s i i 9 6 6 9 6 6 6 6 6 6 ",
"  . . . O # % * % & % $ & s ( <.b.Y.~.T.V.6.[ T E -.a.T.%X8XeXrX5X*X=X#X&XrX0X9X1X'.B.1.! q 7 $ $ * * & & & 5 5 5 5 6 6 5 9 6 5 ",
"      . . * # % * # $ # * i F | 0.f.c.h.r.] W l T :.d.T.-X4XrX>X X!.P.U.(.#X5X8X-X'.B.1.W q $ . . @ X X X X $ $ & & & & & 7 & & ",
".     . . . . # # # # # # = a H | %.<.=. .Q v l E >.j.].%X3X,X XP.x.y.z.S.(.*X5X<X'.Z.,.S = .     o . o @ O # X # # $ # $ # $ # ",
"      . . . . . . . . . . # 4 a N C L A z p e y E ;.k.].%X2X*X~.b.7.#.=.y.P.XX<X&X'.M.<.A =         O o o + @ . . . . . . . . . ",
"      . . . . . # . # . . . # O * * < ; = $ & q W :.k.].-X<X=XL.i.{ K U 7.C.|.,X>X'.N.*.D *       o o , ,     @   .   . . @ . . ",
". . . . . . # . . # . # # . . .         . # & r E :.k.`.&X<XXXS.7.L b K $.z.(.&X&X XC.<.D *       o o o o o     .   . @ . . . . ",
"# # % X # # * # % % % # # # .             . $ 0 E :.m.`.-X-XoXD.7.K b m o.x.).&X&X XM.<.F %         O o O o @ . X . . # . X # # ",
"% # % % * & & & = & & $ % % # .           . $ 9 T :.m.`.-X<XXXD.7.Y 3 b o.x.).>X&X'.B.,.F & .   o     O X + @ # % % % % $ $ % & ",
"= & & = = - 0 8 7 0 - : = & # X .         . $ 8 E :.m.`.%X<X.XD.2.L 3 V $.b.(.&X-X'.B.1.S 7 # .   .   O X % # & & & & 5 5 5 5 5 ",
": : : 0 8 0 0 0 q 0 0 0 8 : & * . .     . # $ 8 T :.m.`.%X<XXXS.8.L 2 V %.b.(.<X-X.XG.w.^ u $ # . . X X X % > & 5 8 8 5 8 8 9 8 ",
"8 0 8 0 0 q q q q q 8 0 0 0 - * X @   . . . $ 0 c :.k.`.&X<X XS.8.U M V $.v.[.;X:XOXK.a.-.W f 0 & * X X X # & & 8 8 9 9 8 9 9 9 ",
"0 8 0 8 8 r q q q r e q 8 0 - % . .   @ . . $ 0 E :.k.`.%X,XXXS.8.U 2 V $.z.[.;X:X-X`.G.p.:./ S k : * X X & & 8 8 9 9 9 9 9 t t ",
"8 0 r q r q r 9 r r q q 8 0 - * X @ .   . . # 8 S ;.n.`.%X<XXXS.8.U 2 V $.z.~.;X7X1X@X].G.d.6...H a * @ X # & - 8 9 9 9 t t 9 t ",
"8 r 0 9 8 r r 9 r 9 8 8 8 0 & * # @       . $ 8 c ;.k./.$X<XXXS.8.U 2 K o.f.~.;X7X7X3X$X'.T.m.w.| B ; @   # & 8 8 9 9 9 9 9 9 t ",
"r 8 9 8 9 9 9 9 9 r 9 r 8 8 - * X @       . # 8 c ;.n.`.%X:XXXS.8.L 2 V o.f._.;X0XwXwX7X:X.XU.z.&.D ; @ . . $ 8 8 q r 9 9 r y t ",
"8 9 9 r 9 9 9 t 9 9 q 8 8 0 - # # @   . . @ # 8 c ;.k.^.%X<XXXS.8.Y 2 V } f._.;XqXwXwXwXeX<X{.C.8.L <     . & - 8 8 9 r 9 r r r ",
"9 8 9 8 9 9 9 9 9 9 9 8 8 - & * + @       . # 8 c ;.k./.%X<XXXS.8.L 2 V o.f._.;XqXwXwXwXwX8XXXL.9.U < .   . & - 0 r q 9 9 9 t q ",
"8 9 9 9 9 9 t 9 9 9 9 r 8 8 - % . .       . # 0 c ;.k./.%X,XoXS.8.L 2 V } z._.;XqXwXwXwXwXeX#XL.9.I <     @ # 8 8 w q r r q y 9 "
};
