/* XPM */
static char *b25374eacb184645ed7062a3c31f6decdZrDhlicWbhh2PUs[] = {
/* columns rows colors chars-per-pixel */
"12 12 6 1 ",
"  c black",
". c #010000",
"X c #000100",
"o c #FDFFFE",
"O c #FEFFFF",
"+ c white",
/* pixels */
"            ",
"     OOO    ",
"    O O     ",
"    OOOO    ",
"     OOO    ",
"            ",
"    OOOO    ",
"   O OOO O  ",
"   O OOO    ",
"     O O    ",
"     O O    ",
"     O OO   "
};
