/* XPM */
static char *wall_bomb1735357753[] = {
/* columns rows colors chars-per-pixel */
"64 64 87 1 ",
"  c black",
". c #010101",
"X c gray1",
"o c #040404",
"O c gray3",
"+ c #090909",
"@ c #0C0C0C",
"# c gray5",
"$ c #0E0E0E",
"% c gray7",
"& c #131313",
"* c gray8",
"= c #151515",
"- c #161616",
"; c #181818",
": c #191919",
"> c gray11",
", c gray12",
"< c #202020",
"1 c gray14",
"2 c #282828",
"3 c gray16",
"4 c gray20",
"5 c #393939",
"6 c gray23",
"7 c #3C3C3C",
"8 c #414141",
"9 c #434343",
"0 c #444444",
"q c gray27",
"w c #4C4C4C",
"e c #4E4E4E",
"r c gray31",
"t c #535353",
"y c gray33",
"u c gray35",
"i c #5B5B5B",
"p c #5F5F5F",
"a c gray39",
"s c DimGray",
"d c #6C6C6C",
"f c #6D6D6D",
"g c #727272",
"h c #747474",
"j c #7E7E7E",
"k c gray50",
"l c #848484",
"z c #888888",
"x c #8B8B8B",
"c c gray55",
"v c gray58",
"b c #979797",
"n c gray60",
"m c #9A9A9A",
"M c #9F9F9F",
"N c #A0A0A0",
"B c gray64",
"V c #A4A4A4",
"C c #A5A5A5",
"Z c #A7A7A7",
"A c gray67",
"S c #ACACAC",
"D c gray68",
"F c #AEAEAE",
"G c #B2B2B2",
"H c #B7B7B7",
"J c gray72",
"K c gray",
"L c gray75",
"P c #C3C3C3",
"I c gray77",
"U c #C8C8C8",
"Y c gray80",
"T c #CECECE",
"R c LightGray",
"E c gray84",
"W c #D8D8D8",
"Q c gray85",
"! c gray87",
"~ c #DFDFDF",
"^ c gray88",
"/ c #E2E2E2",
"( c #E7E7E7",
") c gray93",
"_ c gray95",
"` c gray96",
"' c white",
/* pixels */
"DDHY/`''''''''''''''''''''''''''''''''''''''''''''''''''''~Mp,  ",
"DDHY~`''''''''''''''''''''''''''''''''''''''''''''''''''''/Np,  ",
"JJLY/)````````````````````````````````````````````````````Rmu,  ",
"YYYRR~/~~~/~~~/~/~~/~~/~~~/~/~~/~~/~~~/~/~~/~~/~~~/~/~~/~~Icy,  ",
"//~WRYYYYYYYYYYYYYYYYYYYYYYYYYYYYYYYYYYYYYYYYYYYYYYYYYYYYYGjw:  ",
"``)~YPHHHHHHHHHHHHHHHHHHHHHHHHHHHHHHHHHHHHHHHHHHHHHHHHHHHHMgq-  ",
"''`~YHDDDDDDDDDDDDDDDDDDDDDDDDDDDDDDDDDDDDDDDDDDDDDDDDDDDDbd8-  ",
"''`~YHDDDDDDDDDDDDDDDDDDDDDDDDDDDDDDDDDDDDDDDDDDDDDDDDDDDDbd8-  ",
"''`/YHDDDDDDDDDDDDDDDDDDDDDDDDDDDDDDDDDDDDDDDDDDDDDDDDDDDDbd8-  ",
"''`~YHDDDDDDDDDDDDDDDDDDDDDDDDDDDDDDDDDDDDDDDDDDDDDDDDDDDDbd8-  ",
"''`~YHDDDDDDDDDDDDDDDDDDDDDDDDDDDDDDDDDDDDDDDDDDDDDDDDDDDDbd8-  ",
"''`/YHDDDDDDDDDDDDDDDDDDDDDDDDDDDDDDDDDDDDDDDDDDDDDDDDDDDDbd8-  ",
"''`~YHDDDDDDDDDDDDDDDDDDDDDDDDDDDDDDDDDDDDDDDDDDDDDDDDDDDDbd8&  ",
"''`~YHDDDDDDDDDDDDDDDDDDDDDDDDDDDDDDDDDDDDDDDDDDDDDDDDDDDDbd8-  ",
"''`/YHDDDDDDDDDDDDDDDDDDDDDDDDDDDDDDDDDDDDDDDDDDDDDDDDDDDDbd8-  ",
"''`~YHDDDDDDDDDDDDDDDDDDDDDDDDDDDDDDDDDDDDDDDDDDDDDDDDDDDDbd8-  ",
"''`~YHDDDDDDDDDDDDDDDDDDDDDDDDDDDDDDDDDDDDDDDDDDDDDDDDDDDDbd8&  ",
"''`~YHDDDDDDDDDDDDDDDDDDDDDDDDDDDDDDDDDDDDDDDDDDDDDDDDDDDDbd8-  ",
"''`/YHDDDDDDDDDDDDDDDDDDDDDDDDDDDDDDDDDDDDDDDDDDDDDDDDDDDDbd8-  ",
"''`~YHDDDDDDDDDDDDDDDDDDDDDDDDDDDDDDDDDDDDDDDDDDDDDDDDDDDDbd8-  ",
"''`/YHDDDDDDDDDDDDDDDDDDDDDDDDDDDDDDDDDDDDDDDDDDDDDDDDDDDDbd8&  ",
"''`~YHDDDDDDDDDDDDDDDDDDDDDDDDDDDDDDDDDDDDDDDDDDDDDDDDDDDDbd8-  ",
"''`~YHDDDDDDDDDDDDDDDDDDDDDDDDDDDDDDDDDDDDDDDDDDDDDDDDDDDDbd8-  ",
"''`/YHDDDDDDDDDDDDDDDDDDDDDDDDDDDDDDDDDDDDDDDDDDDDDDDDDDDDbd8-  ",
"''`~YHDDDDDDDDDDDDDDDDDDDDDDDDDDDDDDDDDDDDDDDDDDDDDDDDDDDDbd8&  ",
"''`~YHDDDDDDDDDDDDDDDDDDDDDDDDDDDDDDDDDDDDDDDDDDDDDDDDDDDDbd8-  ",
"''`/YHDDDDDDDDDDDDDDDDDDDDDDDDDDDDDDDDDDDDDDDDDDDDDDDDDDDDbd8-  ",
"''`~YHDDDDDDDDDDDDDDDDDDDDDDDDDDDDDDDDDDDDDDDDDDDDDDDDDDDDbd8-  ",
"''`~YHDDDDDDDDDDDDDDDDDDDDDDDDDDDDDDDDDDDDDDDDDDDDDDDDDDDDbd8&  ",
"''`~YHDDDDDDDDDDDDDDDDDDDDDDDDDDDDDDDDDDDDDDDDDDDDDDDDDDDDbd8-  ",
"''`/YHDDDDDDDDDDDDDDDDDDDDDDDDDDDDDDDDDDDDDDDDDDDDDDDDDDDDbd8-  ",
"''`~YHDDDDDDDDDDDDDDDDDDDDDDDDDDDDDDDDDDDDDDDDDDDDDDDDDDDDbd8-  ",
"''`~YHDDDDDDDDDDDDDDDDDDDDDDDDDDDDDDDDDDDDDDDDDDDDDDDDDDDDbd8&  ",
"''`/YHDDDDDDDDDDDDDDDDDDDDDDDDDDDDDDDDDDDDDDDDDDDDDDDDDDDDbd8-  ",
"''`~YHDDDDDDDDDDDDDDDDDDDDDDDDDDDDDDDDDDDDDDDDDDDDDDDDDDDDbd8-  ",
"''`~YHDDDDDDDDDDDDDDDDDDDDDDDDDDDDDDDDDDDDDDDDDDDDDDDDDDDDbd8-  ",
"''`~YHDDDDDDDDDDDDDDDDDDDDDDDDDDDDDDDDDDDDDDDDDDDDDDDDDDDDbd8&  ",
"''`/YHDDDDDDDDDDDDDDDDDDDDDDDDDDDDDDDDDDDDDDDDDDDDDDDDDDDDbd8-  ",
"''`~YHDDDDDDDDDDDDDDDDDDDDDDDDDDDDDDDDDDDDDDDDDDDDDDDDDDDDbd8-  ",
"''`~YHDDDDDDDDDDDDDDDDDDDDDDDDDDDDDDDDDDDDDDDDDDDDDDDDDDDDbd8-  ",
"''`/YHDDDDDDDDDDDDDDDDDDDDDDDDDDDDDDDDDDDDDDDDDDDDDDDDDDDDbd8&  ",
"''`~YHDDDDDDDDDDDDDDDDDDDDDDDDDDDDDDDDDDDDDDDDDDDDDDDDDDDDbd8-  ",
"''`~YHDDDDDDDDDDDDDDDDDDDDDDDDDDDDDDDDDDDDDDDDDDDDDDDDDDDDbd8-  ",
"''`/YHDDDDDDDDDDDDDDDDDDDDDDDDDDDDDDDDDDDDDDDDDDDDDDDDDDDDbd8-  ",
"''`~YHDDDDDDDDDDDDDDDDDDDDDDDDDDDDDDDDDDDDDDDDDDDDDDDDDDDDbd8&  ",
"''`/YHDDDDDDDDDDDDDDDDDDDDDDDDDDDDDDDDDDDDDDDDDDDDDDDDDDDDbd8-  ",
"''`~YHDDDDDDDDDDDDDDDDDDDDDDDDDDDDDDDDDDDDDDDDDDDDDDDDDDDDbd8-  ",
"''`~YHDDDDDDDDDDDDDDDDDDDDDDDDDDDDDDDDDDDDDDDDDDDDDDDDDDDDbd8-  ",
"''`~YHDDDDDDDDDDDDDDDDDDDDDDDDDDDDDDDDDDDDDDDDDDDDDDDDDDDDbd8-  ",
"''`/YHDDDDDDDDDDDDDDDDDDDDDDDDDDDDDDDDDDDDDDDDDDDDDDDDDDDDbd8-  ",
"''`~YHDDDDDDDDDDDDDDDDDDDDDDDDDDDDDDDDDDDDDDDDDDDDDDDDDDDDbd8-  ",
"''`~YHDDDDDDDDDDDDDDDDDDDDDDDDDDDDDDDDDDDDDDDDDDDDDDDDDDDDbd8-  ",
"''`~YHDDDDDDDDDDDDDDDDDDDDDDDDDDDDDDDDDDDDDDDDDDDDDDDDDDDDbd8&  ",
"''`/YHDDDDDDDDDDDDDDDDDDDDDDDDDDDDDDDDDDDDDDDDDDDDDDDDDDDDbd8-  ",
"''_RLVmbbbbbbbbbbbbbbbbbbbbbbbbbbbbbbbbbbbbbbbbbbbbbbbmNVAbd8-  ",
"'')YNjddddddddddddddddddddddddddddddddddddddddddddddddglbVbd8-  ",
"''(Hzu888888888888888888888887888888888888878888878888wdlMbd8&  ",
"''/Ad4-------&-----&------------&----&----------------2wgmbd8-  ",
"~~Izy,                                                -5alla5&  ",
"MMca5&                                                #28pp82#  ",
"ppt51+                                                +:1552:+  ",
"1,,&#o                                                o+#&-#oo  ",
"                                                                ",
"                                                                "
};
