/* XPM */
static char *_3d07abd736f4b03ef84414f49e6f028GBvApV1KFFX2detm[] = {
/* columns rows colors chars-per-pixel */
"12 12 13 1 ",
"  c black",
". c #000100",
"X c #010100",
"o c #010101",
"O c #000002",
"+ c #D74021",
"@ c #D74222",
"# c #DA4121",
"$ c #D84221",
"% c #D84122",
"& c #DA4122",
"* c #D94223",
"= c #D84124",
/* pixels */
"            ",
" %%%% %%%% %",
" %+%% %%%% %",
"            ",
" % %%%+% %%%",
" % +%%%% +%%",
"            ",
" %%%% %%%% %",
" %%%% %%%% %",
"            ",
" % %%%=% %%%",
" % %%%%% %%%"
};
