/* XPM */
static char *Novo_Projeto__2_1735356840[] = {
/* columns rows colors chars-per-pixel */
"64 64 117 2 ",
"   c black",
".  c #000100",
"X  c #010101",
"o  c #000002",
"O  c #020202",
"+  c gray1",
"@  c #040301",
"#  c #040203",
"$  c #060503",
"%  c #060604",
"&  c #0C0805",
"*  c #0D0906",
"=  c #0F0C07",
"-  c #0F0B08",
";  c #100D08",
":  c #130E0A",
">  c #130E0B",
",  c #140F0B",
"<  c #15100C",
"1  c #16110D",
"2  c #1A130B",
"3  c #1F160D",
"4  c #1F160F",
"5  c #221711",
"6  c #211811",
"7  c #221910",
"8  c #231910",
"9  c #261E11",
"0  c #261E13",
"q  c #271D14",
"w  c #2A2016",
"e  c #2D2317",
"r  c #2F2317",
"t  c #302217",
"y  c #30261A",
"u  c #342619",
"i  c #35271A",
"p  c #30261C",
"a  c #37291C",
"s  c #37291E",
"d  c #3B2B1C",
"f  c #3D2D1D",
"g  c #3E2E1E",
"h  c #403020",
"j  c #413020",
"k  c #413121",
"l  c #423121",
"z  c #423222",
"x  c #443323",
"c  c #463523",
"v  c #453623",
"b  c #473624",
"n  c #493723",
"m  c #483725",
"M  c #4A3824",
"N  c #4F3A27",
"B  c #513C27",
"V  c #523D28",
"C  c #503E28",
"Z  c #513F29",
"A  c #533E29",
"S  c #57412A",
"D  c #56422A",
"F  c #58422B",
"G  c #59432C",
"H  c #5C462E",
"J  c #5D472F",
"K  c #624A30",
"L  c #634932",
"P  c #624A32",
"I  c #634B33",
"U  c #644A31",
"Y  c #654B32",
"T  c #674D34",
"R  c #684E35",
"E  c #684E37",
"W  c #6A5035",
"Q  c #6B5136",
"!  c #6E5335",
"~  c #6E5336",
"^  c #6F5437",
"/  c #705538",
"(  c #735539",
")  c #75573B",
"_  c #77583B",
"`  c #76593B",
"'  c #775A3C",
"]  c #795A3B",
"[  c #785B3B",
"{  c #7A5B3C",
"}  c #7D5B3F",
"|  c #7B5C3D",
" . c #7B5C3F",
".. c #7F5E3D",
"X. c #7C5D3E",
"o. c #7D5E3F",
"O. c #7E5F40",
"+. c #7F6041",
"@. c #81603F",
"#. c #816041",
"$. c #836241",
"%. c #826142",
"&. c #856242",
"*. c #846342",
"=. c #866343",
"-. c #856443",
";. c #866542",
":. c #876542",
">. c #876643",
",. c #876444",
"<. c #866544",
"1. c #886641",
"2. c #886442",
"3. c #896543",
"4. c #886643",
"5. c #886545",
"6. c #896744",
/* pixels */
"                                                                                                                                ",
"                                                                                                                                ",
"                                                                                                                                ",
"      + + * - , 1 1 1 < 1 < < 1 1 , 1 , 1 , 1 , 1 1 , 1 1 , 1 1 1 , 1 , 1 1 , 1 1 , 1 , 1 , 1 , 1 1 , 1 1 , 1 1 1 , 1 , 1 1 , 1 ",
"      + ; 2 8 w r r r r r r r r r r r r r r r r r r r r r r r r r r r r r r r r r r r r r r r r r r r r r r r r r r r r r r r r ",
"      * 2 0 u h b b b b c b b b b b b b b b b b b c b b b b b b b b b b c b b b b b b b b b b b b c b b b b b b b b b b c b b b ",
"      - 8 u c F P P P P P P P P P P P P P P P P P P P P P P P P P P P P P P P P P P P P P P P P P P P P P P P P P P P P P P P P ",
"      , w h F ^  . . . . . . . . . . . . . . . . . . . . . . . . . . . . . . . . . . . . . . . . . . . . . . . . . . . . . . . .",
"      1 r b P  .1.1.6.6.>.,.1.6.1.6.6.6.<.1.6.=.1.,.>.6.6.1.6.1.1.1.6.<.1.6.6.6.<.6.=.1.1.6.<.6.1.>.1.=.6.6.6.5.1.6.6.6.=.6.>.1.",
"      , r b P  .1.6.1.<.1.6.<.6.<.6.=.1.6.6.6.1.6.6.1.6.<.>.6.<.6.>.6.1.<.6.>.1.1.6.6.6.>.6.1.6.6.6.6.6.>.1.=.6.1.>.1.<.1.6.,.6.",
"      1 r b P  .6.6.6.6.6.6.1.6.>.1.<.6.>.,.1.3.<.1.<.1.1.6.1.6.6.1.6.>.>.1.<.6.<.6.>.1.1.6.>.6.,.1.1.6.1.6.<.1.6.6.6.6.=.6.1.6.",
"      , r b P  .<.1.>.1.>.1.=.6.6.6.1.1.1.6.6.<.6.6.6.1.>.6.>.6.6.<.6.1.6.6.1.1.1.1.,.6.<.6.1.6.<.6.<.6.1.,.6.1.<.1.>.1.1.6.1.<.",
"      1 r b P  .<.6.6.1.1.,.1.6.>.>.1.6.>.6.6.1.=.1.6.1.>.>.1.1.=.1.1.6.6.>.>.1.6.6.>.1.1.6.1.1.1.6.1.6.>.1.1.>.=.6.<.6.6.1.6.,.",
"      , r b P  .1.1.,.>.6.,.,.=.<.>.=.%.>.%.=.%.=.%.%.=.=.=.=.%.%.=.%.=.%.=.%.>.=.%.=.=.>.%.%.>.=.%.=.%.=.=.>.6.1.6.1.1.6.>.6.1.",
"      1 r b P  .6.6.1.6.1.=.%. .' / ! W E W W W W W W W W W W E W W W W W W W W E W W W E W W W W W E ! )  .@.,.6.6.6.,.6.1.<.1.",
"      , r b P  .>.=.>.>.6.>.X.( T H V B B B V V V V V V V V V V V V V V V V V V B B V V B B V V V V V F Y ! ` %.1.>.1.>.6.=.6.6.",
"      1 r b P  .6.6.=.6.>.=.` T F n d a a a a a a a a a a a a a a a a a a a a a a a a a a a a a a a a x D K / %.>.1.1.6.6.6.,.1.",
"      1 r c P  .1.6.1.6.>.=.( H n u 8 4 4 4 4 4 4 4 4 4 4 4 4 4 4 4 4 4 4 4 4 4 4 4 4 5 4 4 4 5 4 4 4 r h D W X.>.6.<.6.>.1.<.6.",
"      , r b P  .1.<.>.,.1.=.E A d 5 + $ @ @ # @ + @ + + @ @ @ @ @ @ @ @ @ @ @ @ @ @ @ @   @ @ @ @ $   2 y M I X.1.1.6.1.6.6.1.6.",
"      1 r b P  .<.6.1.6.6.%.W V a 4 $   + * ; ; 1 , , 1 , 1 , 1 1 , 1 , 1 , 1 , 1 , , 1 , 1 , , , 1 1 0 g V E X.6.<.6.>.>.1.=.6.",
"      1 r b P  .<.1.6.1.>.*.W V a 4 @ # ; 2 8 w t t t e t t t t r r r r r r r r r r r r r r r r t r t g N H ^ %.6.6.6.6.1.1.6.<.",
"      , r b P  .6.1.6.>.1.*.W V a 5 @ * 2 0 a h x x v b b b b x b b b b b b b b b b b b b b b b m c n A J W ` @.>.1.=.1.6.,.6.1.",
"      1 r b P  .6.>.6.1.6.%.W B a 4 @ ; 7 u c F H P P J P P J L P P P P P P P P P P P P P P P P P P P E ^ ` X.=.1.6.6.<.1.>.6.=.",
"      1 r b P  .6.1.<.>.>.>.W V a 4 @ ; w j F ! O.O.O.O.O.O.O.O. . . . . . . . . . . . . . . . .X. . .X.%.@.>.>.1.,.1.,.6.6.6.1.",
"      1 r b P  .1.1.6.<.6.*.W V a 4 @ , r b P  .>.1.6.<.=.1.6.1.1.6.6.<.1.=.1.6.1.6.6.6.6.>.6.>.6.6.6.6.1.=.1.<.6.<.6.<.1.=.1.6.",
"      , r b P  .6.>.6.1.1.%.W V a 4 @ 1 r b P  .>.>.6.1.6.6.6.>.1.>.1.,.6.6.>.6.<.6.=.1.6.1.6.1.>.1.=.1.6.6.6.6.6.1.1.,.6.6.>.6.",
"      1 r b P  .6.1.6.>.1.=.W V a 4 @ , r b P  .6.1.6.>.<.1.6.1.6.6.6.6.1.<.1.6.,.1.6.6.,.<.1.=.1.6.6.<.6.>.,.1.6.6.6.6.1.<.1.6.",
"      , r b P  .6.<.6.1.>.=.W V a 4 @ 1 r b P  .6.<.6.1.6.1.,.>.<.1.>.1.6.6.1.,.6.1.>.1.1.6.6.6.1.,.1.,.6.1.6.1.=.1.>.1.6.6.1.,.",
"      1 r c P  .=.1.=.1.6.=.W V a 4 @ 1 t b P  .=.1.=.1.6.6.6.6.1.<.,.6.6.6.6.>.6.<.1.=.,.6.6.6.6.6.6.=.6.=.1.>.1.<.,.6.6.6.6.>.",
"      1 r b P  .6.6.6.6.1.%.W V a 4 @ , t b P  .6.6.6.6.1.>.1.=.6.6.1.1.=.1.6.1.1.,.6.6.1.1.>.1.<.1.6.1.6.1.6.6.6.6.1.1.=.1.6.1.",
"      , r b P  .>.,.1.1.6.%.W V a 4 @ 1 t b P  .>.,.1.1.6.6.<.6.6.=.6.>.6.6.,.1.1.6.1.=.6.<.6.=.6.1.6.>.6.<.1.>.6.=.6.>.6.6.,.1.",
"      1 r b P  .1.6.6.<.<.=.W V a 4 @ , e b P O.1.6.6.<.,.1.1.6.6.1.6.1.=.1.<.6.>.6.6.6.6.1.6.1.<.,.6.1.1.,.6.6.6.1.6.1.=.1.<.6.",
"      1 r b P  .<.6.6.6.1.%.W V a 4 @ , r b P  .6.1.1.>.,.6.6.6.6.>.6.>.1.1.6.<.6.=.1.>.1.6.1.6.,.<.1.6.6.<.1.=.1.6.1.6.6.6.,.1.",
"      , r b P  .1.1.>.1.1.>.W V a 4 @ 1 r b P  .<.,.6.6.1.1.>.1.6.1.6.1.6.,.6.1.6.1.6.6.1.,.>.6.1.6.=.6.1.,.6.6.>.6.=.6.>.1.<.6.",
"      1 r b P  .6.6.6.<.6.%.W V a 4 @ 1 r b P  .1.6.1.6.6.<.6.=.,.<.1.=.1.>.6.=.6.<.1.>.6.6.6.6.,.6.1.6.1.6.1.=.1.1.6.6.6.6.1.6.",
"      , r b P  .1.>.1.>.>.>.W V a 4   > r b P  .=.6.=.6.6.1.6.1.1.6.6.6.6.6.6.1.1.,.6.6.<.1.=.1.1.1.>.6.>.6.6.6.6.,.<.1.>.1.=.6.",
"      1 r b P  .6.6.<.1.>.>.E B a 4 @ 1 r b P  .1.>.1.6.1.6.,.<.1.>.1.=.,.<.1.6.1.6.6.6.6.1.1.>.6.<.6.<.1.6.1.6.6.6.6.6.1.1.6.<.",
"      , r b P  .,.1.6.6.6.%.W B a 4 @ , r b P  .6.6.1.,.>.6.1.6.6.6.6.6.1.6.=.6.<.6.=.1.<.,.6.6.6.1.1.,.=.6.<.6.>.1.=.1.6.,.6.1.",
"      1 r b P  .6.1.=.1.1.=.W V a 4 @ 1 r b L  .1.=.6.<.1.6.1.<.,.1.1.6.,.6.1.6.,.1.6.6.1.6.1.6.6.6.6.6.1.>.1.1.1.6.6.<.1.>.6.=.",
"      , r b P  .,.>.6.6.1.=.W V a 4 @ , r b L O.6.6.6.1.=.6.6.6.<.6.<.6.1.1.>.6.6.1.>.1.=.6.=.6.=.1.>.1.6.6.6.,.1.,.1.,.6.6.6.1.",
"      1 r b P  .=.1.6.1.6.%.W V a 4 $ 1 r b P  .1.6.6.6.,.1.,.1.1.=.1.6.6.=.1.>.1.1.6.<.,.1.6.6.6.1.6.1.>.6.=.6.6.<.6.6.=.6.>.1.",
"      1 r c P  .6.6.6.>.>.=.W V a 4   1 r c P  .=.6.>.1.<.6.6.1.6.6.>.6.6.1.6.6.6.,.6.1.6.1.<.1.,.>.6.=.1.6.1.6.6.1.1.<.1.6.,.6.",
"      , r b P  .<.1.6.6.1.=.E V a 4 @ , r b P  .1.6.,.6.1.=.1.>.1.<.1.6.6.<.1.>.1.>.6.=.6.>.6.6.1.6.6.6.6.,.<.1.6.6.6.6.=.6.1.6.",
"      1 r b P  .6.1.>.1.6.%.W B a 4 @ 1 r b P  .<.6.1.1.6.6.6.6.6.6.1.,.1.,.6.6.6.6.6.1.6.1.=.1.1.<.1.<.6.1.6.1.=.1.>.1.1.6.1.<.",
"      1 r b P  .6.6.>.<.1.%.W V a 4 @ , r b P  .6.=.1.>.1.<.,.6.6.=.6.=.1.6.1.6.,.1.,.1.6.<.6.<.6.1.6.6.6.6.>.,.=.6.<.6.6.1.6.,.",
"      , r b P  .1.<.1.6.1.=.W V a 4 @ 1 r b P  .6.1.6.6.6.6.1.1.6.1.6.1.>.6.=.6.<.6.6.1.6.1.1.,.6.=.1.>.1.=.1.6.1.6.1.1.6.>.6.1.",
"      1 r b P  .1.6.1.<.6.=.W V a 4 @ , r b P  .6.<.1.>.6.=.6.>.6.6.,.<.1.1.6.6.1.=.1.>.6.6.6.6.6.1.6.,.6.6.1.,.6.6.6.,.6.1.<.1.",
"      1 r b P  .>.6.6.6.1.%.W V a 4 @ 1 r b P  .1.,.6.6.6.1.6.1.>.1.1.6.6.,.<.1.6.6.6.6.=.1.>.1.6.<.6.1.1.<.6.6.1.>.1.>.6.=.6.6.",
"      1 r b P  .1.6.6.6.=.%.W V a 4   < t c P  .>.<.1.6.6.<.1.=.6.6.6.1.1.<.,.6.1.>.1.=.6.6.6.6.=.6.>.1.6.<.1.=.1.6.1.6.6.6.,.1.",
"      , r b P  .1.>.1.<.1.,.W V a 4 $ 1 r b P  .1.6.=.6.1.,.6.6.=.1.<.,.6.6.1.1.6.6.6.6.>.1.=.1.1.6.,.6.1.,.6.6.>.6.=.6.>.1.<.6.",
"      1 r b P  .6.6.6.6.<.>.W V d 4 @ , r c P O.,.6.1.6.1.6.1.=.1.6.1.6.6.=.6.>.,.1.1.6.1.6.6.<.,.6.1.6.1.6.1.=.1.1.6.6.6.6.1.6.",
"      , r b P  .<.1.>.1.1.%.! G h r 2 0 g D T X.1.1.>.6.>.6.6.6.>.6.>.6.6.1.6.1.<.6.<.6.1.,.1.,.1.1.6.<.>.6.6.6.6.,.<.1.>.1.=.6.",
"      1 r c P  .6.1.6.1.6.>.) P B z p g N H ! %.6.<.6.<.1.6.1.6.1.1.6.<.6.<.1.=.1.=.1.6.1.6.6.6.6.<.6.<.1.6.1.6.6.6.6.6.1.1.6.<.",
"      1 r b P  .6.=.6.<.<.=. .! K D M D H W ` %.6.1.1.,.=.6.<.6.6.,.6.1.1.,.6.6.6.6.>.6.=.6.>.1.6.1.1.,.=.6.<.6.>.1.=.1.6.,.6.1.",
"      , r b P  .>.1.1.6.1.3.@.] / W T E ^ ' X.=.6.6.6.6.1.>.1.1.1.>.6.=.1.6.1.=.1.<.1.6.1.6.,.6.6.6.6.6.1.>.1.1.1.6.6.<.1.>.6.=.",
"      1 r b P  .,.6.>.6.1.1.=.%.%.X. .X.%.%.=.=.=.1.>.1.6.6.6.,.6.6.6.1.>.6.6.6.6.6.1.,.<.6.1.1.=.1.>.1.6.6.6.,.1.,.1.,.6.6.6.1.",
"      1 t x H O.1.6.1.6.<.6.=.1.6.<.1.=.1.6.1.6.1.=.1.<.6.6.6.1.,.1.,.1.6.6.6.=.1.6.6.6.6.>.6.>.6.6.6.6.1.=.1.<.6.<.6.<.1.=.1.6.",
"      > e x P O.1.<.,.6.1.6.6.6.1.,.6.6.>.6.=.6.6.6.6.6.=.1.<.,.<.6.6.1.<.1.6.1.<.6.=.1.6.1.6.1.>.1.=.1.6.6.6.6.6.1.1.,.6.6.>.6.",
"      1 t b P O.6.1.6.1.<.6.>.1.1.6.1.=.1.1.6.6.6.>.,.1.1.6.1.6.1.=.1.>.6.1.6.>.,.1.6.6.,.<.1.=.1.6.6.<.6.>.,.1.6.6.6.6.1.<.1.6.",
"      1 t b J O.6.=.6.>.1.1.,.6.>.6.6.6.6.,.<.1.6.1.6.1.>.6.>.6.6.6.6.6.<.,.6.1.6.1.>.1.1.6.6.6.1.,.1.,.6.1.6.1.=.1.>.1.6.6.1.,.",
"      1 t b P O.<.6.6.1.6.1.6.6.,.1.6.6.1.>.1.=.,.<.1.6.1.6.6.6.6.1.1.>.1.=.1.6.6.<.1.=.,.6.6.6.6.6.6.=.6.=.1.>.1.<.,.6.6.6.6.>.",
"      , t b P O.1.1.,.>.6.=.1.>.6.1.<.1.6.6.6.6.1.6.=.6.<.6.=.1.<.,.6.6.6.6.>.6.1.,.6.6.1.1.>.1.<.1.6.1.6.1.6.6.6.6.1.1.=.1.6.1.",
"      1 t b J O.6.6.6.6.6.1.6.,.6.>.6.6.,.1.1.6.,.6.1.6.,.1.6.6.1.6.1.6.1.<.1.6.1.6.1.=.6.<.6.=.6.1.6.>.6.<.1.>.6.=.6.>.6.6.,.1.",
"      , t b L O.1.=.1.=.6.<.6.1.6.1.=.1.<.6.<.6.1.1.>.6.6.1.>.1.=.6.=.6.6.6.1.,.>.6.6.6.6.1.6.1.<.,.6.1.1.,.6.6.6.1.6.1.=.1.<.6."
};
